<?xml version="1.0" encoding="utf-8"?>
<svg xmlns="http://www.w3.org/2000/svg" viewBox="-376.6277 739.9705 207.4922 131.4421" width="207.492px" height="131.442px">
  <defs>
    <clipPath id="dd7a463ae8">
      <path d="M 144.019531 598.84375 L 351.769531 598.84375 L 351.769531 730.84375 L 144.019531 730.84375 Z M 144.019531 598.84375 "/>
    </clipPath>
    <clipPath id="8d5519e5cc">
      <path d="M 185 598.84375 L 247 598.84375 L 247 682 L 185 682 Z M 185 598.84375 "/>
    </clipPath>
  </defs>
  <g id="218c5912d7" transform="matrix(1, 0, 0, 1, -520.6394653320312, 141.04080200195312)">
    <g clip-rule="nonzero" clip-path="url(#dd7a463ae8)">
      <path style=" stroke:none;fill-rule:nonzero;fill:#968067;fill-opacity:1;" d="M 349.988281 727.464844 C 335.265625 726.558594 323.597656 719.085938 313.183594 709.59375 C 307.230469 704.167969 301.363281 698.652344 295.484375 693.152344 L 295.484375 669.03125 L 286.574219 669.03125 L 286.574219 684.855469 C 278.847656 677.585938 271.136719 670.296875 263.359375 663.074219 C 260.660156 660.5625 257.511719 658.539062 253.9375 655.8125 C 270.632812 640.804688 285.539062 627.121094 300.773438 613.828125 C 309.300781 606.386719 319.148438 601.453125 330.84375 601.183594 C 331.625 601.171875 332.386719 600.359375 333.160156 599.917969 C 333.085938 599.589844 333.003906 599.257812 332.925781 598.929688 C 316.570312 598.929688 300.210938 598.929688 283.050781 598.929688 C 290.050781 604.925781 290.101562 605.832031 284.152344 612.515625 C 281.816406 615.144531 279.355469 617.679688 276.816406 620.113281 C 258.242188 637.910156 239.738281 655.773438 221.003906 673.398438 C 206.640625 686.917969 192.1875 700.34375 177.386719 713.375 C 168.535156 721.167969 158.226562 726.476562 146.085938 727.320312 C 145.375 727.375 144.699219 728.027344 144.011719 728.394531 C 145.800781 729.800781 147.546875 730.238281 149.300781 730.257812 C 155.992188 730.339844 162.699219 730.5 169.382812 730.183594 C 171.835938 730.0625 174.71875 729.300781 176.5625 727.800781 C 185.855469 720.261719 195.09375 712.621094 203.9375 704.554688 C 216.683594 692.941406 229.0625 680.929688 242.363281 668.363281 C 243.644531 670.027344 244.671875 671.707031 246.019531 673.070312 C 260.398438 687.585938 274.679688 702.210938 289.316406 716.472656 C 296.441406 723.417969 304.59375 729.285156 315.0625 729.734375 C 326.316406 730.222656 337.59375 730.109375 348.867188 730.160156 C 349.652344 730.160156 350.445312 729.316406 351.503906 728.707031 C 350.738281 728.054688 350.378906 727.488281 349.988281 727.464844 Z M 349.988281 727.464844 "/>
    </g>
    <g clip-rule="nonzero" clip-path="url(#8d5519e5cc)">
      <path style=" stroke:none;fill-rule:nonzero;fill:#968067;fill-opacity:1;" d="M 192.859375 601.328125 C 203.402344 601.679688 205.792969 604.113281 205.800781 614.6875 C 205.816406 634.933594 205.792969 655.191406 205.808594 675.4375 C 205.808594 677.191406 205.964844 678.945312 206.101562 681.835938 C 213.632812 674.679688 220 668.371094 226.671875 662.40625 C 229.527344 659.851562 230.785156 657.265625 230.710938 653.339844 C 230.449219 640.316406 230.589844 627.277344 230.621094 614.246094 C 230.640625 604.378906 232.695312 602.183594 242.40625 601.296875 C 243.753906 601.175781 245.082031 600.742188 246.414062 600.457031 C 246.347656 599.949219 246.28125 599.4375 246.214844 598.929688 C 226.460938 598.929688 206.714844 598.929688 185.507812 598.929688 C 187.339844 600.4375 187.707031 600.992188 188.132812 601.042969 C 189.691406 601.230469 191.28125 601.273438 192.859375 601.328125 Z M 192.859375 601.328125 "/>
    </g>
    <path style=" stroke:none;fill-rule:nonzero;fill:#968067;fill-opacity:1;" d="M 255.085938 705.800781 C 255.085938 706.746094 254.992188 707.679688 254.808594 708.605469 C 254.625 709.53125 254.351562 710.429688 253.992188 711.300781 C 253.628906 712.171875 253.1875 713 252.664062 713.785156 C 252.140625 714.570312 251.542969 715.296875 250.875 715.964844 C 250.207031 716.628906 249.484375 717.226562 248.699219 717.75 C 247.914062 718.273438 247.085938 718.71875 246.214844 719.078125 C 245.339844 719.441406 244.441406 719.710938 243.515625 719.898438 C 242.589844 720.082031 241.65625 720.171875 240.714844 720.171875 C 239.769531 720.171875 238.835938 720.082031 237.910156 719.898438 C 236.984375 719.710938 236.085938 719.441406 235.214844 719.078125 C 234.339844 718.71875 233.511719 718.273438 232.730469 717.75 C 231.945312 717.226562 231.21875 716.628906 230.550781 715.964844 C 229.882812 715.296875 229.289062 714.570312 228.761719 713.785156 C 228.238281 713 227.796875 712.171875 227.433594 711.300781 C 227.074219 710.429688 226.800781 709.53125 226.617188 708.605469 C 226.433594 707.679688 226.339844 706.746094 226.339844 705.800781 C 226.339844 704.855469 226.433594 703.921875 226.617188 702.996094 C 226.800781 702.070312 227.074219 701.171875 227.433594 700.300781 C 227.796875 699.429688 228.238281 698.601562 228.761719 697.816406 C 229.289062 697.03125 229.882812 696.304688 230.550781 695.636719 C 231.21875 694.96875 231.945312 694.375 232.730469 693.851562 C 233.511719 693.324219 234.339844 692.882812 235.214844 692.523438 C 236.085938 692.160156 236.984375 691.886719 237.910156 691.703125 C 238.835938 691.519531 239.769531 691.429688 240.714844 691.429688 C 241.65625 691.429688 242.589844 691.519531 243.515625 691.703125 C 244.441406 691.886719 245.339844 692.160156 246.214844 692.523438 C 247.085938 692.882812 247.914062 693.324219 248.699219 693.851562 C 249.484375 694.375 250.207031 694.96875 250.875 695.636719 C 251.542969 696.304688 252.140625 697.03125 252.664062 697.816406 C 253.1875 698.601562 253.628906 699.429688 253.992188 700.300781 C 254.351562 701.171875 254.625 702.070312 254.808594 702.996094 C 254.992188 703.921875 255.085938 704.855469 255.085938 705.800781 Z M 255.085938 705.800781 "/>
  </g>
</svg>