<?xml version="1.0" encoding="UTF-8" standalone="no"?>
<!-- Created with Inkscape (http://www.inkscape.org/) -->

<svg
   width="195.14191mm"
   height="112.86943mm"
   viewBox="0 0 195.14191 112.86943"
   version="1.1"
   id="svg1"
   xml:space="preserve"
   xmlns:inkscape="http://www.inkscape.org/namespaces/inkscape"
   xmlns:sodipodi="http://sodipodi.sourceforge.net/DTD/sodipodi-0.dtd"
   xmlns:xlink="http://www.w3.org/1999/xlink"
   xmlns="http://www.w3.org/2000/svg"
   xmlns:svg="http://www.w3.org/2000/svg"><path
     style="fill:#FFF;stroke-width:0.955014"
     d="M 35.446018,112.72554 C 20.114279,110.81957 7.2749579,100.06524 2.2151179,84.89106 -3.3835641,68.10091 1.8446469,49.48994 15.479141,37.67479 20.932959,32.94874 26.91738,29.76222 33.608138,28.0217 c 4.88302,-1.27026 6.06956,-1.41671 11.4789,-1.41671 h 5.09277 l 1.20302,-1.746987 c 2.83769,-4.120829 6.94156,-8.423461 11.5974,-12.159083 6.25856,-5.0215629 13.91038,-8.8010139 21.95502,-10.8442089 8.8413,-2.24553002 17.192052,-2.44670802 26.256832,-0.632553 4.9128,0.98321 9.06457,2.389956 13.70294,4.642987 9.86496,4.7917539 17.77752,11.8187089 23.53508,20.9008849 l 1.46275,2.30738 2.25821,-0.16029 c 1.24204,-0.0881 3.57696,-0.0391 5.18876,0.10917 12.84432,1.18114 24.29693,7.86175 31.166,18.17991 3.87339,5.81831 5.91157,11.50135 6.52345,18.18926 0.24038,2.62746 0.0683,8.08579 -0.25496,8.08579 -0.0923,0 -0.36579,-1.03314 -0.60784,-2.29587 -3.00656,-15.6839 -16.09027,-28.3008 -31.19519,-30.08223 -1.37973,-0.16271 -3.9326,-0.22387 -5.96731,-0.14294 -3.85998,0.15353 -5.87203,0.55579 -10.7229,2.14376 -2.8395,0.92956 -2.87539,0.93436 -3.23923,0.4346 -0.20236,-0.27795 -1.35497,-2.06065 -2.56133,-3.96155 -2.79188,-4.39921 -5.56587,-7.75982 -8.7631,-10.61626 -11.64935,-10.407614 -27.22695,-14.14147 -42.324042,-10.144797 -7.63794,2.022001 -14.66642,6.279685 -20.48428,12.408887 -3.09738,3.26314 -4.84447,5.72735 -7.71522,10.88206 -1.83267,3.29075 -2.44514,4.19332 -2.80226,4.12959 -0.25135,-0.0449 -1.64469,-0.42421 -3.0963,-0.843 -8.11738,-2.34186 -13.10863,-2.55255 -19.68158,-0.83084 -8.442007,2.21131 -15.883667,8.25881 -19.944548,16.20802 -2.710838,5.3065 -3.678278,9.33262 -3.691759,15.36372 -0.01047,4.66133 0.421415,7.39842 1.790592,11.34931 2.016586,5.81906 5.108111,10.57529 9.657611,14.858 5.386844,5.07094 12.285144,8.44163 20.358854,9.94791 l 1.01073,0.18855 -0.75805,0.18075 c -0.77936,0.18583 -7.23731,0.23888 -8.59114,0.0706 z m 17.56131,-0.0123 c -3.12546,-1.17441 -3.99623,-6.42607 -1.46315,-8.82438 1.27475,-1.20692 1.74427,-1.35458 4.09588,-1.28812 l 2.16772,0.0612 2.5e-4,1.60031 c 2.7e-4,1.82605 -0.35956,1.99196 -0.90147,0.41563 -0.42318,-1.23094 -0.9496,-1.63692 -2.12253,-1.63692 -2.06687,0 -2.61116,1.13104 -2.49381,5.18208 0.0832,2.87091 0.10408,2.96461 0.79437,3.55783 0.81635,0.70156 1.65553,0.77152 2.7105,0.22598 0.74468,-0.38509 1.50782,-1.52755 1.50782,-2.25731 0,-0.21536 0.15977,-0.39156 0.35506,-0.39156 0.28165,0 0.32682,0.3265 0.21848,1.57925 -0.15688,1.81405 -0.18587,1.87951 -0.65865,1.48713 -0.26643,-0.22111 -0.5676,-0.19954 -1.26139,0.0903 -0.90877,0.37971 -2.23012,0.46864 -2.94908,0.19848 z m 5.81166,-0.32303 c 0,-0.13897 0.22742,-0.25268 0.50536,-0.25268 0.48665,0 0.50537,-0.16846 0.50537,-4.54825 0,-4.37982 -0.0187,-4.54826 -0.50537,-4.54826 -0.27794,0 -0.50536,-0.11367 -0.50536,-0.25269 0,-0.14739 0.84227,-0.25267 2.02145,-0.25267 1.17918,0 2.02144,0.10527 2.02144,0.25267 0,0.13898 -0.22741,0.25269 -0.50536,0.25269 -0.46324,0 -0.50536,0.16844 -0.50536,2.02143 v 2.02146 h 2.14779 2.14779 v -2.02146 c 0,-1.85299 -0.0421,-2.02143 -0.50537,-2.02143 -0.27794,0 -0.50536,-0.11367 -0.50536,-0.25269 0,-0.14739 0.84227,-0.25267 2.02145,-0.25267 1.17918,0 2.02145,0.10527 2.02145,0.25267 0,0.13898 -0.28427,0.25269 -0.63171,0.25269 h -0.6317 v 4.54826 4.54825 h 0.6317 c 0.34744,0 0.63171,0.11367 0.63171,0.25268 0,0.14739 -0.84227,0.25268 -2.02145,0.25268 -1.17918,0 -2.02145,-0.10527 -2.02145,-0.25268 0,-0.13897 0.22742,-0.25268 0.50536,-0.25268 0.46793,0 0.50537,-0.16846 0.50537,-2.27413 v -2.27412 h -2.14779 -2.14779 v 2.27412 c 0,2.10567 0.0374,2.27413 0.50536,2.27413 0.27795,0 0.50536,0.11367 0.50536,0.25268 0,0.14739 -0.84226,0.25268 -2.02144,0.25268 -1.17918,0 -2.02145,-0.10527 -2.02145,-0.25268 z m 10.86528,0.0294 c 0,-0.12276 0.21327,-0.27898 0.47393,-0.34714 0.34712,-0.0908 0.96615,-1.38333 2.31337,-4.8304 1.01169,-2.58857 1.92053,-4.70648 2.01964,-4.70648 0.0991,0 0.9492,2.16043 1.8891,4.80093 1.36483,3.83434 1.80095,4.80095 2.16611,4.80095 0.25147,0 0.52749,0.11367 0.61338,0.25268 0.0998,0.1614 -0.67617,0.25268 -2.14779,0.25268 -1.47162,0 -2.24754,-0.0913 -2.14779,-0.25268 0.0859,-0.13898 0.38904,-0.25268 0.67365,-0.25268 0.33903,0 0.47081,-0.12158 0.38213,-0.35273 -0.0745,-0.19398 -0.27516,-0.81938 -0.44605,-1.38975 l -0.3107,-1.03701 h -1.44865 -1.44865 l -0.40646,1.01584 c -0.5364,1.3406 -0.51268,1.76365 0.0989,1.76365 0.27795,0 0.50536,0.11367 0.50536,0.25268 0,0.13897 -0.62538,0.25268 -1.38974,0.25268 -0.76436,0 -1.38975,-0.10041 -1.38975,-0.22322 z m 4.70058,-5.08309 c -0.29212,-0.83384 -0.59399,-1.51608 -0.67083,-1.51608 -0.0768,0 -0.36116,0.59379 -0.63182,1.31951 -0.27066,0.72572 -0.53001,1.40796 -0.57633,1.51608 -0.0463,0.10808 0.477,0.19658 1.16294,0.19658 h 1.24716 z m 5.28031,5.05363 c 0.0859,-0.13898 0.37687,-0.25268 0.64661,-0.25268 0.46731,0 0.49045,-0.21455 0.49045,-4.54825 v -4.54826 h -0.64661 c -0.36673,0 -0.57902,-0.10941 -0.49045,-0.25269 0.0859,-0.13897 1.05911,-0.25268 2.1627,-0.25268 1.16924,0 2.00653,0.1054 2.00653,0.25268 0,0.13897 -0.22741,0.25269 -0.50536,0.25269 -0.48665,0 -0.50536,0.16844 -0.50536,4.54826 v 4.54825 h 1.15367 c 1.50842,0 1.97732,-0.27918 2.78565,-1.65849 0.36869,-0.6291 0.72535,-1.08882 0.79259,-1.02158 0.0672,0.0673 0.0422,0.81146 -0.0555,1.65384 l -0.17776,1.53159 h -3.90666 c -2.54009,0 -3.85202,-0.0884 -3.75049,-0.25268 z m 8.71749,0 c 0,-0.13898 0.22741,-0.25268 0.50536,-0.25268 0.48664,0 0.50536,-0.16846 0.50536,-4.54825 0,-4.37982 -0.0187,-4.54826 -0.50536,-4.54826 -0.27795,0 -0.50536,-0.11367 -0.50536,-0.25269 0,-0.15712 1.42083,-0.25268 3.75715,-0.25268 h 3.75715 l 0.15662,0.94755 c 0.3683,2.22815 -0.0465,2.83621 -0.74463,1.09152 -0.44202,-1.10472 -1.25908,-1.5337 -2.9211,-1.5337 h -0.97302 v 2.03823 2.03822 l 0.69487,-0.08 c 0.50354,-0.0579 0.7944,-0.30607 1.05633,-0.90117 0.1988,-0.45166 0.45464,-0.8212 0.56853,-0.8212 0.11389,0 0.20708,0.90966 0.20708,2.02144 0,1.11181 -0.0932,2.02145 -0.20708,2.02145 -0.1139,0 -0.36973,-0.36954 -0.56853,-0.82122 -0.26193,-0.59508 -0.55279,-0.84321 -1.05633,-0.90115 l -0.69487,-0.08 v 2.2909 2.29092 h 1.52758 c 1.28828,0 1.6255,-0.098 2.15281,-0.62525 0.34388,-0.34388 0.69404,-0.96926 0.77813,-1.38975 0.0841,-0.42047 0.25239,-0.76449 0.37401,-0.76449 0.25709,0 0.29137,1.35417 0.0631,2.49521 l -0.15792,0.78963 h -3.88497 c -2.42152,0 -3.88497,-0.0952 -3.88497,-0.25268 z m 11.37064,0 c 0,-0.13898 0.22741,-0.25268 0.505362,-0.25268 0.48677,0 0.50536,-0.16846 0.50536,-4.57985 v -4.57983 l -0.804632,0.16092 c -1.02926,0.20585 -1.67799,0.79819 -1.92711,1.7596 -0.3771,1.45527 -0.80579,1.08328 -0.80579,-0.69924 v -1.66348 h 4.548262 4.54825 v 1.66348 c 0,1.78252 -0.42869,2.15451 -0.80579,0.69924 -0.24913,-0.96141 -0.89786,-1.55375 -1.92711,-1.7596 l -0.80463,-0.16092 v 4.57983 c 0,4.41139 0.0186,4.57985 0.50536,4.57985 0.27795,0 0.50536,0.11367 0.50536,0.25268 0,0.14739 -0.84227,0.25268 -2.02144,0.25268 -1.17919,0 -2.021452,-0.10528 -2.021452,-0.25268 z M 59.470928,94.67546 c -4.49158,-0.65501 -8.85769,-4.79229 -10.13944,-9.60798 -0.48745,-1.83144 -0.46877,-5.59334 0.0363,-7.31185 1.14083,-3.8816 3.73351,-7.08492 7.06982,-8.73488 1.78702,-0.88377 2.1957,-0.9843 4.3236,-1.06353 1.95541,-0.0728 2.73796,0.0237 4.6601,0.57513 2.12868,0.6106 2.35697,0.6319 2.90748,0.27119 0.32858,-0.21529 0.59742,-0.50254 0.59742,-0.6383 0,-0.13577 0.28427,-0.24686 0.6317,-0.24686 h 0.6317 v 3.24959 c 0,1.78728 0.0723,3.77712 0.16069,4.42192 0.15247,1.11236 0.12985,1.17221 -0.44219,1.17017 -0.51387,-0.002 -0.67115,-0.22123 -1.06531,-1.48602 -0.63945,-2.05183 -2.24645,-4.41638 -3.66455,-5.39206 -0.93871,-0.64586 -1.49402,-0.83067 -2.73296,-0.90956 -2.77442,-0.17666 -4.58875,0.87967 -5.67295,3.30288 -0.56244,1.25706 -0.59949,1.66768 -0.68983,7.64542 -0.10785,7.13629 0.0968,8.94245 1.23976,10.94378 1.00283,1.75587 2.36382,2.64008 4.2767,2.77844 3.49336,0.25268 6.69354,-2.65537 7.66875,-6.96873 0.29554,-1.30714 0.39643,-1.45528 1.04261,-1.53091 l 0.7154,-0.0837 -0.16386,2.10517 c -0.0901,1.15784 -0.16455,3.2138 -0.16538,4.56881 -0.002,2.45902 -0.003,2.46364 -0.63322,2.46364 -0.34743,0 -0.85911,-0.22742 -1.13706,-0.50537 -0.64984,-0.64983 -0.96694,-0.63654 -2.75353,0.11537 -1.2847,0.54071 -4.21266,1.19997 -4.95323,1.11527 -0.13898,-0.0158 -0.92582,-0.12707 -1.74854,-0.24706 z m 50.224512,0.002 c -6.72689,-1.12334 -11.310822,-6.60892 -11.276342,-13.49437 0.0178,-3.53802 1.17922,-6.47189 3.590652,-9.06971 5.09051,-5.48401 13.33686,-5.62219 18.58679,-0.31147 6.06015,6.13033 4.96979,16.22346 -2.26072,20.92693 -2.46472,1.60331 -5.97184,2.39424 -8.64038,1.94862 z m 4.57952,-1.56321 c 1.21989,-0.69093 2.02604,-1.83731 2.60414,-3.70316 0.36746,-1.18601 0.43464,-2.47162 0.42994,-8.228 -0.006,-6.52728 -0.0308,-6.88541 -0.58818,-8.27924 -1.10289,-2.75799 -2.72781,-3.95987 -5.36768,-3.97024 -2.74534,-0.011 -4.64033,1.64765 -5.42224,4.74534 -0.33019,1.30813 -0.38745,2.81909 -0.3208,8.4648 0.0773,6.54573 0.10875,6.93234 0.66202,8.13269 1.12866,2.44873 2.62913,3.40233 5.35712,3.40464 1.23896,9.5e-4 1.88889,-0.13821 2.64568,-0.56683 z m 24.99718,1.56982 c -3.46893,-0.41428 -6.05269,-1.88154 -7.24759,-4.11577 -0.54704,-1.02285 -0.56151,-1.2761 -0.63388,-11.09081 l -0.0741,-10.04407 h -1.63153 c -1.4631,0 -1.63155,-0.0521 -1.63155,-0.50536 0,-0.49219 0.16845,-0.50536 6.46189,-0.50536 6.01784,0 6.4561,0.0303 6.37758,0.44219 -0.0686,0.36017 -0.40261,0.45611 -1.80047,0.51721 l -1.71615,0.0751 0.0763,10.15855 c 0.0727,9.66656 0.1015,10.20752 0.59494,11.16928 0.77492,1.51031 2.44402,2.27293 4.91404,2.24527 2.84566,-0.0319 4.73037,-1.06442 5.88591,-3.22461 0.5425,-1.01416 0.55746,-1.26575 0.55746,-9.38057 0,-7.49473 -0.0456,-8.43002 -0.4507,-9.24328 -0.43068,-0.86462 -1.73986,-1.74834 -2.59005,-1.74834 -0.20374,0 -0.37045,-0.22741 -0.37045,-0.50536 0,-0.48362 0.16846,-0.50535 3.91656,-0.50535 3.74811,0 3.91654,0.0218 3.91654,0.50535 0,0.35743 -0.16843,0.50536 -0.57547,0.50536 -0.69906,0 -1.58274,0.58818 -2.01254,1.33953 -0.23102,0.40387 -0.35261,2.93609 -0.44526,9.27306 l -0.12746,8.7175 -0.70795,1.44393 c -1.70188,3.47118 -5.56258,5.08851 -10.68616,4.47663 z M 73.474478,93.69078 c 0,-0.45352 0.16845,-0.50536 1.64242,-0.50536 h 1.64243 V 81.30943 69.43342 h -1.64243 c -1.47397,0 -1.64242,-0.0519 -1.64242,-0.50536 0,-0.49215 0.16845,-0.50536 6.44336,-0.50536 6.2749,0 6.44336,0.0131 6.44336,0.50536 0,0.45353 -0.16846,0.50536 -1.64243,0.50536 h -1.64242 v 11.90466 11.90465 l 2.58998,-0.106 c 2.19093,-0.0897 2.79293,-0.21081 3.90722,-0.78624 2.44191,-1.26098 4.25544,-3.37657 4.86185,-5.67161 0.23878,-0.90369 0.38451,-1.07388 0.91955,-1.07388 h 0.6358 l -0.1525,3.47436 c -0.0839,1.91089 -0.20897,3.8439 -0.27797,4.29557 l -0.12547,0.82121 h -10.98016 c -10.81172,0 -10.98017,-0.007 -10.98017,-0.50536 z m 83.384672,0.0155 c 0,-0.47256 0.1522,-0.52082 1.64243,-0.52082 h 1.64243 V 81.30945 69.43346 h -1.64243 c -1.48718,0 -1.64243,-0.0489 -1.64243,-0.51785 0,-0.51328 0.0752,-0.51718 8.52798,-0.44219 l 8.52799,0.0757 1.96593,0.93874 c 5.10429,2.4373 7.68438,7.81618 6.78923,14.15392 -0.61629,4.36337 -2.79638,7.36871 -6.77655,9.34177 l -2.19144,1.08634 -8.42156,0.0786 c -8.3619,0.0781 -8.42158,0.075 -8.42158,-0.4422 z m 14.78101,-0.804 c 1.50847,-0.41879 3.01037,-2.05267 3.57794,-3.89241 0.3999,-1.2962 0.46578,-2.40319 0.46578,-7.82676 0,-3.47435 -0.0874,-6.72708 -0.19415,-7.22825 -0.33045,-1.55101 -1.58326,-3.15413 -3.02718,-3.87368 -1.11499,-0.55562 -1.63408,-0.64772 -3.65068,-0.64772 h -2.35085 v 11.87599 11.87601 l 2.08462,-9.6e-4 c 1.14655,-7.7e-4 2.53906,-0.12757 3.09452,-0.28176 z"
     id="path1" /></svg>
