<?xml version="1.0" encoding="UTF-8" standalone="no"?>
<!-- Created with Inkscape (http://www.inkscape.org/) -->

<svg
   width="185.06017mm"
   height="151.33542mm"
   viewBox="0 0 185.06017 151.33542"
   version="1.1"
   id="svg1"
   xml:space="preserve"
   xmlns:inkscape="http://www.inkscape.org/namespaces/inkscape"
   xmlns:sodipodi="http://sodipodi.sourceforge.net/DTD/sodipodi-0.dtd"
   xmlns="http://www.w3.org/2000/svg"
   xmlns:svg="http://www.w3.org/2000/svg"><sodipodi:namedview
     id="namedview1"
     pagecolor="#ffffff"
     bordercolor="#666666"
     borderopacity="1.0"
     inkscape:showpageshadow="2"
     inkscape:pageopacity="0.0"
     inkscape:pagecheckerboard="0"
     inkscape:deskcolor="#d1d1d1"
     inkscape:document-units="mm"><inkscape:page
       x="0"
       y="0"
       width="185.06017"
       height="151.33542"
       id="page2"
       margin="0"
       bleed="0" /></sodipodi:namedview><defs
     id="defs1" /><path
     style="fill:#000000"
     d="m 2.513543,150.76764 c -1.428276,-0.95759 -2.11666695,-2.57792 -2.11666695,-4.98222 0,-2.39261 0.68921195,-4.02814 2.08964895,-4.9588 1.59115,-1.0574 4.093401,-0.63984 5.291247,0.88297 0.550787,0.70022 0.559997,0.77316 0.136705,1.08268 -0.384375,0.28106 -0.59095,0.21152 -1.349109,-0.45415 -0.957411,-0.84062 -2.285419,-1.042 -3.297962,-0.5001 -0.778233,0.4165 -1.535334,2.2917 -1.540327,3.81511 -0.0096,2.92963 0.992497,4.43779 2.94869,4.43779 0.96399,0 1.243779,-0.1371 1.95213,-0.95654 0.725354,-0.83911 0.884966,-0.91405 1.300169,-0.61045 0.555514,0.4062 0.338635,0.97631 -0.763645,2.00737 -1.030761,0.96417 -3.386731,1.08389 -4.65088,0.23634 z m 12.170834,-4.98222 v -5.29166 h 0.661458 c 0.653677,0 0.661458,0.0265 0.661458,2.24895 v 2.24896 h 2.645834 2.645833 v -2.24896 -2.24895 h 0.79375 0.79375 v 5.29166 5.29167 h -0.79375 -0.79375 v -2.51354 -2.51354 h -2.645833 -2.645834 v 2.51354 c 0,2.50472 -0.0023,2.51354 -0.661458,2.51354 h -0.661458 z m 14.024908,5.09323 c 0.0011,-0.10914 0.807114,-2.46062 1.791153,-5.22552 1.632801,-4.58775 1.846512,-5.03366 2.445405,-5.10232 0.624483,-0.0716 0.745877,0.17026 2.508326,4.99739 1.018646,2.78994 1.891771,5.17528 1.940278,5.30076 0.04851,0.12547 -0.203439,0.22813 -0.559879,0.22813 -0.538491,0 -0.737189,-0.23488 -1.175099,-1.38906 l -0.527025,-1.38907 -2.102812,-0.076 -2.102812,-0.076 -0.461825,1.46508 c -0.394811,1.25249 -0.555845,1.46508 -1.109763,1.46508 -0.356366,0 -0.647042,-0.0893 -0.645947,-0.19844 z m 5.803381,-4.10104 c -0.0085,-0.1819 -0.354066,-1.2237 -0.767917,-2.3151 l -0.752457,-1.98438 -0.318326,0.79375 c -0.378504,0.9438 -1.320839,3.61604 -1.320839,3.74559 0,0.05 0.714375,0.0909 1.5875,0.0909 1.101857,0 1.582771,-0.10118 1.572039,-0.33073 z m 8.746712,-0.99219 v -5.29166 h 0.661458 0.661458 v 4.7625 4.7625 h 2.38125 c 2.204862,0 2.38125,0.0392 2.38125,0.52916 0,0.49849 -0.176388,0.52917 -3.042708,0.52917 h -3.042708 z m 11.90625,0 v -5.29166 h 3.175 c 2.998611,0 3.175,0.0294 3.175,0.52916 0,0.48997 -0.176389,0.52917 -2.38125,0.52917 h -2.38125 v 1.7077 1.70771 l 1.785938,0.0782 c 1.58347,0.0694 1.785937,0.13823 1.785937,0.6074 0,0.46918 -0.202467,0.53804 -1.785937,0.6074 l -1.785938,0.0782 v 1.83999 1.84 h 2.38125 c 2.204861,0 2.38125,0.0392 2.38125,0.52916 0,0.49977 -0.176389,0.52917 -3.175,0.52917 h -3.175 z m 14.816667,0.52917 v -4.7625 h -1.73919 c -1.51385,0 -1.72768,-0.06 -1.65031,-0.46302 0.0793,-0.41292 0.52512,-0.47093 4.12044,-0.53606 3.89648,-0.0706 4.03156,-0.0551 4.03156,0.46302 0,0.48338 -0.16902,0.53606 -1.71979,0.53606 h -1.71979 v 4.7625 4.7625 h -0.66146 -0.66146 z M 18.653127,128.58808 c -0.945886,-0.12447 -3.089011,-0.66224 -4.7625,-1.19503 -7.038357,-2.24081 -7.957107,-2.30551 -9.635678,-0.67858 -0.735582,0.71296 -1.025721,0.8147 -2.323214,0.8147 H 0.44907805 l -0.161958,-2.97656 c -0.08908,-1.63711 -0.190119,-6.10205 -0.224538,-9.92208 L 2.0519357e-6,107.685 1.072403,107.68521 l 1.0724,2.1e-4 0.603364,1.91823 c 1.495758,4.75535 4.696626,9.8726 7.645617,12.2231 2.021463,1.61121 5.158725,3.22029 7.231184,3.70882 2.105761,0.49638 7.051643,0.52238 8.833368,0.0464 3.009947,-0.80403 5.236081,-2.50257 6.408267,-4.88953 0.629106,-1.28106 0.735484,-1.82296 0.735484,-3.74664 0,-1.99685 -0.08772,-2.40733 -0.782523,-3.66167 -1.078358,-1.94678 -3.233742,-3.82852 -5.793654,-5.05811 -1.185291,-0.56932 -4.943886,-2.11953 -8.352434,-3.44491 -3.408548,-1.32539 -7.223475,-2.93976 -8.477615,-3.58749 -3.892667,-2.010493 -6.82779,-5.397013 -8.008346,-9.239963 -0.723382,-2.35476 -0.77671,-6.57512 -0.115481,-9.13911 1.225956,-4.75379 4.270453,-8.40413 8.703616,-10.4356 2.286205,-1.04764 4.003542,-1.43972 7.21602,-1.64748 3.142601,-0.20324 5.64052,0.21605 9.171665,1.53953 3.278739,1.22888 4.9132,1.29672 6.31272,0.26201 0.583934,-0.43173 1.146032,-0.56638 2.364276,-0.56638 h 1.598214 v 7.95271 7.95272 l -1.070481,-0.0814 -1.070481,-0.0814 -0.89564,-2.19205 c -2.266638,-5.5475 -6.521099,-10.06659 -10.721732,-11.38861 -3.131276,-0.98547 -8.530794,-0.84021 -10.799435,0.29054 -1.490244,0.74277 -3.110148,2.52019 -3.466504,3.80356 -0.372324,1.34089 -0.362609,3.6137 0.02092,4.89381 0.361853,1.20775 1.617912,2.74999 3.041341,3.73427 0.559471,0.38687 4.801403,2.19324 9.426517,4.01416 10.721758,4.22119 12.720932,5.23473 15.13862,7.67496 3.25033,3.280653 4.735084,7.018463 4.736323,11.923533 4.88e-4,1.93457 -0.153828,3.48705 -0.460243,4.63021 -1.693346,6.31745 -6.753445,11.3651 -12.992812,12.96087 -2.260229,0.57807 -7.243928,0.85294 -9.67181,0.53345 z m 30.162501,-1.98495 v -0.92604 h 3.571875 3.571875 V 99.747917 73.818747 h -3.571875 -3.571875 v -0.92604 -0.92604 h 13.758337 13.75833 v 0.92604 0.92604 h -3.57187 -3.57188 v 13.53716 13.537163 l 1.78594,-1.703793 c 0.98226,-0.93708 5.14329,-4.89778 9.24672,-8.80155 4.10342,-3.90377 7.89968,-7.73503 8.43612,-8.51392 1.84202,-2.67453 2.00605,-5.34544 0.41581,-6.77061 -0.71833,-0.64378 -2.72478,-1.28445 -4.02261,-1.28445 -0.41349,0 -0.51615,-0.18417 -0.51615,-0.92604 v -0.92604 h 10.46702 10.467005 l -0.0821,0.94206 c -0.0802,0.91962 -0.12938,0.95791 -2.06649,1.60793 -1.10239,0.36992 -2.92516,1.29568 -4.101035,2.08287 -2.23648,1.49719 -7.7335,6.40644 -12.87252,11.4961 l -3.08294,3.05333 9.62482,17.197923 9.624815,17.19792 1.46176,0.0794 1.46177,0.0794 v 0.91283 0.91284 H 92.868755 80.301045 v -0.91836 -0.91836 l 3.40862,-0.0738 3.40862,-0.0738 -6.93586,-12.39425 c -3.81472,-6.81684 -7.04524,-12.38063 -7.17893,-12.36398 -0.13369,0.0166 -1.04675,0.74982 -2.02901,1.62926 l -1.78594,1.59899 v 10.83114 10.83113 h 3.57188 3.57187 v 0.92604 0.92604 H 62.573965 48.815628 Z m 73.554162,0 v -0.92604 h 3.57188 3.57187 l -0.0128,-11.9724 -0.0128,-11.97239 -8.54498,-13.890633 -8.54498,-13.89062 -2.42246,-0.0761 -2.42246,-0.0761 v -0.91612 -0.91611 h 13.49375 13.49376 v 0.91814 0.91813 l -3.29796,0.0741 -3.29795,0.074 7.06827,11.55437 c 6.11114,9.98979 7.11391,11.49546 7.40541,11.11929 1.17415,-1.51519 8.54772,-14.68638 8.80741,-15.73239 0.95302,-3.83881 -0.71826,-6.56277 -4.27336,-6.96498 l -1.56391,-0.17694 v -0.89186 -0.89187 h 8.86354 8.86355 l -0.005,0.99219 c -0.004,0.94446 -0.0722,1.02145 -1.41082,1.60061 -2.04911,0.88651 -3.10733,1.8729 -5.69859,5.31178 -2.76708,3.67223 -4.40191,6.24973 -9.44838,14.89652 l -3.81061,6.529233 v 12.19004 12.19005 h 3.57187 3.57188 v 0.92604 0.92604 h -13.75833 -13.75834 z m -5.58034,-63.604883 c -3.29631,-1.05463 -5.38097,-3.37927 -5.38097,-6.0004 v -1.36738 l -3.05216,-0.13576 c -4.5113,-0.20066 -7.13915,-1.221822 -9.707945,-3.772424 -1.27554,-1.266498 -1.72019,-1.925181 -2.05053,-3.037544 -0.5281,-1.778335 -0.52833,-2.457048 -0.001,-4.231404 0.83161,-2.800348 4.661655,-5.693516 8.503845,-6.423695 l 1.52679,-0.290155 v -3.19318 c 0,-3.661898 0.55911,-5.94594 2.16324,-8.837107 1.25338,-2.259007 3.97948,-5.088398 6.27203,-6.509682 8.78525,-5.446474 20.41726,-2.099606 24.98905,7.190076 l 0.68233,1.386468 2.13639,-0.164216 c 6.02922,-0.463442 11.12684,2.948253 13.09672,8.765272 0.38791,1.145497 0.55389,1.336733 1.21923,1.404783 0.4236,0.04333 1.41994,0.262186 2.21409,0.486356 4.73866,1.337616 8.03769,4.828975 8.00496,8.471638 -0.0232,2.578393 -1.36576,4.6559 -4.1887,6.481533 -1.26036,0.815091 -1.66591,1.216838 -1.5398,1.525361 0.83365,2.03951 0.71514,3.39504 -0.45072,5.15517 -0.43424,0.65558 -1.36629,1.54686 -2.07122,1.9806 -2.67994,1.64899 -2.25735,1.61885 -22.47926,1.60322 -16.93098,-0.0131 -18.52527,-0.0522 -19.88597,-0.48753 z m 40.32929,-2.7698 c 3.22298,-1.58257 3.48091,-4.45621 0.5619,-6.26026 -1.06469,-0.658017 -3.3059,-1.30836 -4.52473,-1.312963 -0.86615,-0.0033 -1.15278,-0.358342 -1.15278,-1.428038 0,-0.323329 -0.31374,-1.217464 -0.6972,-1.986967 -0.82916,-1.663897 -2.24585,-2.779007 -4.28298,-3.371214 -1.41285,-0.410729 -2.42773,-0.343191 -4.69987,0.312764 -0.46848,0.135249 -0.62341,-0.0336 -1.02487,-1.116946 -1.96415,-5.300325 -7.13381,-8.180364 -12.30549,-6.855441 -3.15559,0.808423 -6.05669,3.306431 -7.18569,6.18727 -0.64007,1.633259 -0.8306,4.978175 -0.40617,7.130953 l 0.22169,1.124479 -1.01544,0.0031 c -2.28723,0.0071 -5.06753,1.162802 -6.17048,2.564983 -0.71035,0.90306 -0.70208,2.53741 0.0179,3.54859 0.5326,0.74795 2.04844,1.68178 3.4173,2.1052 0.36381,0.11254 8.99584,0.18388 19.1823,0.15854 l 18.52083,-0.0461 z m -43.24462,-7.849448 c 1.04607,-0.840645 3.36639,-1.843582 4.26518,-1.843582 0.4805,0 0.52632,-0.180107 0.52632,-2.068644 0,-3.654386 1.23865,-6.640235 3.80452,-9.171114 4.08923,-4.033455 9.47071,-4.958935 14.60018,-2.510865 1.96472,0.937673 4.24593,3.070626 5.34819,5.000612 l 0.8157,1.428241 2.06935,0.03824 c 1.6487,0.03047 2.40402,0.189701 3.71569,0.783321 2.05136,0.928374 3.97709,2.905164 4.82178,4.949617 0.60074,1.454012 0.64765,1.496372 1.83669,1.658676 0.67111,0.09161 1.85705,0.517519 2.63543,0.946472 l 1.41524,0.779915 1.25902,-0.637997 c 1.72971,-0.876511 2.84992,-1.870091 3.46273,-3.071302 2.00408,-3.928303 -2.02912,-8.012978 -8.50639,-8.614978 l -1.75853,-0.163437 -0.15496,-1.308383 c -0.36176,-3.054543 -2.67015,-6.195415 -5.62099,-7.648108 -2.28497,-1.124887 -5.34483,-1.341366 -7.61227,-0.538553 l -1.54884,0.548384 -0.15224,-0.584946 c -0.0837,-0.32172 -0.67347,-1.62692 -1.31052,-2.900444 -2.64938,-5.296275 -7.68562,-8.40539 -13.60172,-8.396987 -4.24068,0.006 -7.46577,1.374824 -10.60712,4.501907 -2.329,2.31843 -3.64375,4.704705 -4.30062,7.805669 -0.49667,2.344711 -0.49819,3.797779 -0.007,6.36685 0.21629,1.130451 0.36512,2.077012 0.33073,2.103467 -0.0344,0.02646 -1.0849,0.176776 -2.33446,0.334044 -3.11388,0.391912 -5.07837,1.214841 -6.75504,2.829715 -2.409955,2.321135 -2.511545,4.520595 -0.31867,6.899581 2.01077,2.181428 5.20508,3.229201 9.95647,3.265843 2.65513,0.02048 2.75398,-2.49e-4 3.72579,-0.781217 z m 50.85971,-20.376035 c -2.62076,-0.686351 -4.91039,-2.01443 -7.42199,-4.305059 -2.19228,-1.999396 -2.51825,-2.464857 -1.5384,-2.196707 0.32742,0.0896 1.78594,0.23797 3.24114,0.329703 4.4789,0.282339 7.89533,-0.992406 11.00049,-4.104514 2.68908,-2.695094 3.95232,-5.822365 3.94533,-9.767015 -0.007,-3.7102344 -1.28992,-6.6159824 -4.31253,-9.7644064 L 167.54061,-1.3765785e-6 168.43697,0.00199862 c 1.43084,0.0032 4.16836,0.509652 5.89043,1.08977598 4.80684,1.61931 9.02404,6.219782 10.33332,11.2724504 0.53002,2.045414 0.53315,5.855538 0.006,7.886958 -1.86443,7.191299 -8.49705,12.328374 -15.85247,12.278 -1.20537,-0.0083 -2.97388,-0.236298 -4.0809,-0.526218 z m 6.56221,-2.138765 c 9.08077,-1.555474 13.99637,-11.361249 9.91331,-19.775382 -0.89251,-1.8392404 -3.92895,-4.9161564 -5.87349,-5.9517814 l -1.40581,-0.748708 0.7916,1.568139 c 1.11484,2.208489 1.62314,4.41348 1.62314,7.0410964 0,2.95926 -0.36067,4.585093 -1.61779,7.29266 -1.94151,4.181603 -6.09488,7.473729 -10.93614,8.668431 l -1.77407,0.437795 1.46976,0.619798 c 2.51117,1.058963 5,1.329199 7.80949,0.847952 z"
     id="path1" /></svg>
