<?xml version="1.0" encoding="UTF-8" standalone="no"?>
<!-- Created with Inkscape (http://www.inkscape.org/) -->

<svg
   width="146.55157mm"
   height="118.77633mm"
   viewBox="0 0 146.55157 118.77633"
   version="1.1"
   id="svg1"
   xml:space="preserve"
   xmlns:inkscape="http://www.inkscape.org/namespaces/inkscape"
   xmlns:sodipodi="http://sodipodi.sourceforge.net/DTD/sodipodi-0.dtd"
   xmlns:xlink="http://www.w3.org/1999/xlink"
   xmlns="http://www.w3.org/2000/svg"
   xmlns:svg="http://www.w3.org/2000/svg"><path
     style="fill:#FFF"
     d="m 44.64546,118.37596 c -0.85985,-0.54004 -1.69862,-1.99075 -1.69862,-2.93788 0,-0.92963 0.68208,-2.27267 1.46826,-2.89108 0.60978,-0.47965 1.03076,-0.57021 2.41331,-0.51917 l 1.67468,0.0618 v 1.15183 c 0,0.7005 -0.10367,1.08775 -0.26458,0.9883 -0.14552,-0.0899 -0.26458,-0.31434 -0.26458,-0.49866 0,-0.18433 -0.29939,-0.6164 -0.6653,-0.96016 -0.55106,-0.51769 -0.78763,-0.58199 -1.37772,-0.37446 -0.85369,0.30022 -1.24695,1.67582 -1.03251,3.61164 0.1924,1.73685 0.55972,2.32268 1.45633,2.32268 0.79957,0 1.44714,-0.56684 1.73802,-1.52135 0.41632,-1.36614 0.89834,-0.26466 0.51298,1.17222 -0.0851,0.31729 -0.35137,0.57721 -0.5917,0.57759 -0.24034,3.8e-4 -0.91323,0.0745 -1.49531,0.1646 -0.79705,0.12344 -1.25953,0.0375 -1.87326,-0.34793 z m 8.95086,0.0371 c 0.40534,-0.10593 0.46302,-0.48115 0.46302,-3.01202 0,-2.3934 -0.0683,-2.89101 -0.39687,-2.89101 -0.21828,0 -0.39688,-0.11907 -0.39688,-0.26459 0,-0.14699 0.70556,-0.26458 1.5875,-0.26458 0.88195,0 1.5875,0.11759 1.5875,0.26458 0,0.14552 -0.17859,0.26459 -0.39687,0.26459 -0.29398,0 -0.39688,0.30868 -0.39688,1.19062 v 1.19063 h 1.05834 1.05833 v -1.19063 c 0,-0.65484 -0.11906,-1.19062 -0.26458,-1.19062 -0.14553,0 -0.26459,-0.11907 -0.26459,-0.26459 0,-0.14699 0.70556,-0.26458 1.5875,-0.26458 0.88195,0 1.5875,0.11759 1.5875,0.26458 0,0.14552 -0.17859,0.26459 -0.39687,0.26459 -0.32857,0 -0.39688,0.49761 -0.39688,2.89101 0,2.53087 0.0577,2.90609 0.46302,3.01202 0.25466,0.0665 -0.31088,0.12541 -1.25677,0.1308 -0.94588,0.005 -1.57096,-0.0503 -1.38906,-0.12364 0.20745,-0.0837 0.33073,-0.66765 0.33073,-1.56662 v -1.43316 h -1.05833 -1.05834 v 1.43581 c 0,1.14495 0.0938,1.46032 0.46302,1.55681 0.25466,0.0665 -0.31088,0.121 -1.25677,0.121 -0.94588,0 -1.51143,-0.0545 -1.25677,-0.121 z m 11.5212,-0.29246 c 0.26116,-0.26116 0.93104,-1.75528 1.48861,-3.32026 0.73354,-2.05887 1.12335,-2.82355 1.41018,-2.7663 0.23829,0.0476 0.83272,1.2708 1.49027,3.06676 0.60163,1.64321 1.27142,3.0999 1.48842,3.2371 0.26862,0.16983 -0.15434,0.24094 -1.32524,0.2228 -0.94589,-0.0147 -1.52009,-0.0794 -1.27601,-0.14394 0.37004,-0.0978 0.39872,-0.24659 0.17256,-0.89535 -0.23766,-0.68175 -0.39902,-0.77805 -1.30368,-0.77805 -0.56785,0 -1.03245,0.10932 -1.03245,0.24294 0,0.13362 -0.072,0.43051 -0.15995,0.65976 -0.1069,0.27858 0.0466,0.49956 0.46302,0.66633 0.52539,0.21043 0.42611,0.25214 -0.6338,0.26628 -1.20885,0.0161 -1.23867,-0.001 -0.78193,-0.45807 z m 2.96474,-1.87603 c 0,-0.12881 -0.17034,-0.63483 -0.37854,-1.12448 l -0.37854,-0.89027 -0.41521,0.98369 c -0.5408,1.28123 -0.54558,1.26527 0.37854,1.26527 0.43656,0 0.79375,-0.1054 0.79375,-0.23421 z m 7.73906,2.16849 c 0.40534,-0.10593 0.46302,-0.48115 0.46302,-3.01202 0,-2.3934 -0.0683,-2.89101 -0.39687,-2.89101 -0.21828,0 -0.39688,-0.11907 -0.39688,-0.26459 0,-0.15108 0.76609,-0.26097 1.78594,-0.25617 1.54195,0.007 1.72268,0.0564 1.32292,0.3599 -0.65329,0.49592 -0.7019,5.98169 -0.053,5.98169 0.70782,0 1.92648,-0.76507 2.10261,-1.32001 0.28376,-0.89408 0.66238,-0.59327 0.66238,0.52626 v 1.05833 l -2.97657,-0.0307 c -1.63711,-0.0169 -2.7682,-0.0851 -2.51354,-0.15169 z m 10.18646,-0.004 c 0.57406,-0.11057 0.59531,-0.21792 0.59531,-3.00668 0,-2.39429 -0.0683,-2.89201 -0.39687,-2.89201 -0.21828,0 -0.39688,-0.11907 -0.39688,-0.26459 0,-0.15941 1.09278,-0.26458 2.74918,-0.26458 h 2.74918 l 0.12665,0.99219 c 0.14178,1.11065 -0.1846,1.74535 -0.45668,0.88809 -0.28573,-0.90026 -0.91305,-1.35111 -1.87993,-1.35111 -0.89875,0 -0.90715,0.011 -0.90715,1.19062 0,0.85549 0.1064,1.19063 0.37798,1.19063 0.43192,0 1.20952,-0.70259 1.20952,-1.09285 0,-0.14371 0.11907,-0.18772 0.26459,-0.0978 0.14552,0.0899 0.26458,0.68525 0.26458,1.32292 0,0.63767 -0.11906,1.23298 -0.26458,1.32292 -0.14552,0.0899 -0.26459,0.0459 -0.26459,-0.0978 0,-0.39026 -0.7776,-1.09285 -1.20952,-1.09285 -0.28648,0 -0.37798,0.39267 -0.37798,1.62212 v 1.62212 l 0.95886,-0.1556 c 1.03025,-0.16719 1.95156,-0.83277 1.95156,-1.40986 0,-0.19572 0.11906,-0.35586 0.26458,-0.35586 0.14552,0 0.26459,0.47625 0.26459,1.05833 v 1.05833 l -3.10886,-0.036 c -1.70987,-0.0198 -2.84096,-0.0876 -2.51354,-0.15069 z m 11.77396,0.004 c 0.40534,-0.10593 0.46302,-0.48115 0.46302,-3.01202 0,-2.72236 -0.0311,-2.89101 -0.53345,-2.89101 -0.34789,0 -0.68517,0.31817 -0.96964,0.91471 -0.5504,1.1542 -0.79296,1.01994 -0.66081,-0.36577 l 0.10281,-1.07811 h 3.01492 3.01492 v 1.19063 c 0,1.40279 -0.24615,1.50357 -0.79375,0.325 -0.24456,-0.52635 -0.62535,-0.88662 -0.99219,-0.93872 -0.5864,-0.0833 -0.59531,-0.041 -0.59531,2.82587 0,2.80785 0.021,2.91446 0.59531,3.02508 0.32742,0.0631 -0.23812,0.11706 -1.25677,0.12 -1.01864,0.003 -1.64372,-0.0491 -1.38906,-0.11566 z M 11.858299,98.562514 c -0.291042,-0.0703 -1.790642,-0.5327 -3.3324447,-1.02764 -3.366008,-1.08051 -4.173631,-1.11741 -5.218262,-0.23842 -0.559162,0.47051 -1.099694,0.66146 -1.872383,0.66146 h -1.086285 v -2.86835 c 0,-1.57759 -0.07851,-4.68217 -0.174463,-6.89907 L -2.6952601e-6,84.159764 0.8520753,84.245864 c 0.806025,0.0814 0.888029,0.1933 1.517244,2.07043 1.459271,4.3534 4.07082,7.52379 7.6644047,9.30448 2.030351,1.00608 2.41623,1.10391 4.794446,1.21556 3.065819,0.14394 5.149909,-0.43777 6.639039,-1.85305 2.541635,-2.4156 2.517808,-6.34716 -0.05214,-8.60361 -1.307799,-1.14826 -2.797861,-1.87587 -8.015163,-3.91386 -5.9376007,-2.31935 -7.7245107,-3.29605 -9.4602607,-5.17087 -2.291646,-2.47525 -3.162811,-5.59393 -2.548307,-9.12268 0.830109,-4.76684 4.005379,-8.06025 8.7885737,-9.11557 2.508082,-0.55337 6.30838,-0.22071 8.762882,0.76705 2.422881,0.97504 2.666195,0.99309 4.028008,0.2988 0.570862,-0.29105 1.489005,-0.52917 2.040319,-0.52917 h 1.00239 v 5.55625 5.55625 h -0.79375 c -0.436563,0 -0.79375,-0.14013 -0.79375,-0.31141 0,-0.17127 -0.466228,-1.2726 -1.036061,-2.44739 -1.40153,-2.88946 -3.493202,-5.16505 -5.784374,-6.29299 -1.645546,-0.8101 -1.950194,-0.86971 -4.418794,-0.8646 -1.462464,0.003 -3.088484,0.15795 -3.6261297,0.34549 -1.349419,0.47069 -2.760173,2.10137 -2.988826,3.45476 -0.334265,1.97849 0.05127,3.2088 1.419119,4.52864 1.086603,1.04846 1.880817,1.44031 6.6516877,3.28178 7.203192,2.7803 9.040091,3.69166 10.886737,5.40133 6.73422,6.2347 3.399847,18.16328 -5.742818,20.54464 -1.481698,0.38593 -6.642696,0.52682 -7.92825,0.21643 z m 125.013911,-0.0581 c -2.0622,-0.62729 -3.35212,-1.88334 -4.11228,-4.00429 -0.23112,-0.64485 -0.70309,-3.45689 -1.04883,-6.24898 -0.75126,-6.06699 -0.95636,-6.90651 -1.91056,-7.82048 -1.33038,-1.27429 -2.5503,-1.60695 -6.35422,-1.73274 l -3.50573,-0.11592 v 9.02648 9.02648 h 2.38125 c 2.36362,0 2.38125,0.005 2.38125,0.66145 v 0.66146 h -9.525 -9.525 v -0.66146 c 0,-0.65913 0.009,-0.66145 2.51355,-0.66145 h 2.51354 v -17.85938 -17.85937 h -2.51354 c -2.50473,0 -2.51355,-0.002 -2.51355,-0.66146 v -0.66146 l 12.50157,0.002 c 7.08226,10e-4 13.2101,0.11699 14.13606,0.26727 4.61455,0.74895 7.66866,2.51442 8.97749,5.18956 0.98206,2.00727 1.0633,4.85504 0.1926,6.75147 -1.46011,3.18017 -3.90833,4.4837 -11.16654,5.94552 -0.34459,0.0694 -0.56704,0.18567 -0.49433,0.25839 0.0727,0.0727 1.38138,0.41446 2.90816,0.75945 6.38898,1.44364 7.99267,3.45177 8.67005,10.85655 0.35912,3.92561 0.64017,5.03615 1.48949,5.88547 0.58636,0.58636 0.81926,0.64703 1.96351,0.51151 1.1383,-0.13481 1.33526,-0.0846 1.5988,0.40785 0.39049,0.72965 -0.0975,1.10078 -2.37023,1.80276 -1.7446,0.53885 -5.80676,0.69333 -7.18751,0.27332 z m -8.44122,-21.88586 c 1.27686,-0.5109 2.50529,-1.87745 2.87078,-3.19355 0.41857,-1.50727 0.35918,-8.10779 -0.0823,-9.14386 -0.47768,-1.12107 -1.34365,-1.89031 -2.90608,-2.58145 -1.01601,-0.44942 -2.00492,-0.59575 -4.82535,-0.71401 l -3.54746,-0.14873 v 8.28112 8.28112 l 3.73127,-0.18468 c 2.35406,-0.11652 4.11064,-0.33649 4.75913,-0.59596 z m -88.92373,20.67786 c 0,-0.65913 0.009,-0.66145 2.51354,-0.66145 h 2.51354 v -17.89764 -17.89763 l -1.65364,0.159 c -2.68727,0.25839 -4.12108,0.89071 -5.78207,2.54995 -1.66548,1.66373 -3.23904,4.61089 -3.7419,7.0083 -0.29902,1.42557 -0.33606,1.47177 -1.180133,1.47177 h -0.871422 v -2.2069 c 0,-1.21379 0.07812,-4.01175 0.173601,-6.2177 l 0.173601,-4.01082 h 17.409203 17.4092 l 0.13232,0.85989 c 0.0728,0.47295 0.18263,3.27723 0.24411,6.23175 l 0.11179,5.37185 -0.92473,-0.0802 c -0.90803,-0.0787 -0.93509,-0.116 -1.49916,-2.06456 -0.77146,-2.66495 -1.58609,-4.21453 -3.12088,-5.93653 -1.58047,-1.77325 -3.41674,-2.69925 -5.83353,-2.94175 l -1.78594,-0.1792 v 17.8902 17.8902 h 2.38125 c 2.36361,0 2.38125,0.005 2.38125,0.66145 v 0.66146 h -9.525 -9.525 z m 26.9875,0.0188 c 0,-0.56964 0.17294,-0.67837 1.52135,-0.95653 1.19629,-0.24678 1.72565,-0.52774 2.47747,-1.3149 1.13625,-1.18965 0.83469,-0.42962 8.11056,-20.44164 l 5.74999,-15.81515 1.71184,0.0724 1.71183,0.0724 6.76465,18.78542 6.76465,18.78541 1.77612,0.0782 c 1.68807,0.0744 1.77612,0.11043 1.77612,0.7276 v 0.64937 H 95.9958 87.13226 v -0.66146 c 0,-0.65432 0.0246,-0.66145 2.27727,-0.66145 1.7126,0 2.24603,-0.082 2.1513,-0.33073 -0.0693,-0.1819 -0.88522,-2.38456 -1.81319,-4.89479 l -1.68724,-4.56407 h -6.11169 -6.11169 l -0.68522,2.31511 c -1.62773,5.49949 -1.18568,6.68497 2.72222,7.30031 1.66371,0.26197 1.84991,0.35197 1.84991,0.89418 v 0.6029 h -6.61459 -6.61458 z m 21.16667,-12.13085 c 0,-0.11745 -5.56187,-15.10151 -5.6312,-15.17083 -0.0756,-0.0756 -5.48161,14.7632 -5.48143,15.04595 7e-5,0.10914 2.50044,0.19843 5.55638,0.19843 3.05593,0 5.55625,-0.0331 5.55625,-0.0736 z M 65.62347,53.793934 c -1.52011,-2.57333 -4.72863,-5.46777 -7.72767,-6.97119 -4.35494,-2.18314 -11.80294,-3.90532 -23.26229,-5.37886 -2.02571,-0.26049 -3.573525,-0.50739 -3.43958,-0.54867 0.133945,-0.0413 3.2201,-0.4994 6.85812,-1.01804 7.24138,-1.03234 11.36093,-1.86972 15.21354,-3.09246 11.69052,-3.710327 15.67426,-10.403884 18.3915,-30.9018008 0.99223,-7.485029 0.97843,-7.468749 1.67752,-1.978534 3.49226,27.4260158 7.96782,32.3081348 32.84765,35.8315048 3.1287,0.44307 6.22432,0.88436 6.87917,0.98063 l 1.19062,0.17505 -1.05833,0.20117 c -0.58208,0.11065 -2.96333,0.45891 -5.29167,0.77392 -11.91631,1.61223 -18.65268,3.48096 -22.89567,6.35148 -2.02741,1.37161 -4.09336,3.41812 -5.16855,5.11994 l -0.77536,1.22723 -6.49139,4.7e-4 -6.4914,4.8e-4 z"
     id="path1" /></svg>
