<?xml version="1.0" encoding="UTF-8" standalone="no"?>
<!-- Created with Inkscape (http://www.inkscape.org/) -->

<svg
   width="184.94376mm"
   height="157.6283mm"
   viewBox="0 0 184.94376 157.6283"
   version="1.1"
   id="svg1"
   xml:space="preserve"
   xmlns:inkscape="http://www.inkscape.org/namespaces/inkscape"
   xmlns:sodipodi="http://sodipodi.sourceforge.net/DTD/sodipodi-0.dtd"
   xmlns:xlink="http://www.w3.org/1999/xlink"
   xmlns="http://www.w3.org/2000/svg"
   xmlns:svg="http://www.w3.org/2000/svg"><path
     style="fill:#FFF;fill-opacity:1"
     d="m 60.457295,157.50861 c -2.180479,-0.95267 -2.724328,-4.80008 -0.931884,-6.59252 0.879654,-0.87965 1.987954,-1.18241 3.12972,-0.85496 0.515428,0.14782 0.892915,0.12537 1.082686,-0.0644 0.212082,-0.21208 0.291353,0.0872 0.291353,1.10009 0,0.86026 -0.101006,1.32903 -0.264583,1.22793 -0.145521,-0.0899 -0.264584,-0.37617 -0.264584,-0.63607 0,-0.66374 -0.840414,-1.3483 -1.655276,-1.3483 -1.254233,0 -1.784307,1.07171 -1.784307,3.60755 0,2.46223 0.428443,3.27161 1.731818,3.27161 0.808565,0 1.972349,-1.08572 1.972349,-1.84005 0,-0.29766 0.119062,-0.5412 0.264583,-0.5412 0.145521,0 0.264583,0.57823 0.264583,1.28495 0,1.22462 -0.03415,1.28508 -0.727604,1.288 -0.400182,0.002 -1.144323,0.0763 -1.653646,0.16581 -0.509323,0.0895 -1.164166,0.0587 -1.455208,-0.0684 z m 9.988021,-0.20687 c 0.410681,-0.10732 0.463021,-0.50542 0.463021,-3.52178 0,-3.01636 -0.05234,-3.41446 -0.463021,-3.52178 -0.254661,-0.0665 0.251354,-0.121 1.124479,-0.121 0.873125,0 1.379141,0.0545 1.124479,0.121 -0.369225,0.0965 -0.46302,0.41185 -0.46302,1.5568 v 1.43581 h 1.5875 1.5875 v -1.43581 c 0,-1.14495 -0.0938,-1.46031 -0.463021,-1.5568 -0.254662,-0.0665 0.310885,-0.121 1.256771,-0.121 0.945885,0 1.511432,0.0545 1.256771,0.121 -0.410681,0.10732 -0.463021,0.50542 -0.463021,3.52178 0,3.01636 0.05234,3.41446 0.463021,3.52178 0.254661,0.0666 -0.310886,0.121 -1.256771,0.121 -0.945886,0 -1.511433,-0.0545 -1.256771,-0.121 0.380389,-0.0994 0.463021,-0.42445 0.463021,-1.82139 v -1.70039 h -1.5875 -1.5875 v 1.70039 c 0,1.39694 0.08263,1.72199 0.46302,1.82139 0.254662,0.0666 -0.251354,0.121 -1.124479,0.121 -0.873125,0 -1.37914,-0.0545 -1.124479,-0.121 z m 13.116408,-0.28063 c 0.297648,-0.25467 1.101832,-1.92154 1.787076,-3.70417 0.685245,-1.78263 1.33142,-3.24115 1.435944,-3.24115 0.104525,0 0.763637,1.60273 1.464695,3.56162 0.797885,2.22945 1.430085,3.60345 1.690215,3.67347 0.22856,0.0615 -0.35835,0.11186 -1.304233,0.11186 -0.945886,0 -1.511433,-0.0545 -1.256771,-0.121 0.543235,-0.14196 0.558105,-0.25964 0.172554,-1.36563 -0.25924,-0.74366 -0.402066,-0.83323 -1.328589,-0.83323 -0.858542,0 -1.091802,0.11781 -1.348435,0.68106 -0.238742,0.52398 -0.236917,0.79859 0.0079,1.19062 0.294808,0.47207 0.238018,0.50957 -0.77166,0.50957 -1.067761,0 -1.0789,-0.009 -0.54871,-0.46302 z m 3.207214,-3.175 c -0.146236,-0.40019 -0.330782,-0.9062 -0.410102,-1.12448 -0.09946,-0.2737 -0.261258,-0.12057 -0.521317,0.49339 -0.52311,1.23499 -0.485772,1.35869 0.410103,1.35869 0.746833,0 0.773567,-0.0373 0.521316,-0.7276 z m 9.340966,3.45563 c 0.41068,-0.10732 0.46302,-0.50542 0.46302,-3.52178 0,-3.01636 -0.0523,-3.41446 -0.46302,-3.52178 -0.25467,-0.0665 0.31088,-0.121 1.25677,-0.121 0.94588,0 1.51143,0.0545 1.25677,0.121 -0.41086,0.10736 -0.46302,0.50635 -0.46302,3.54118 v 3.42018 h 0.8141 c 0.81284,0 2.110826,-0.99733 2.413716,-1.85462 0.24687,-0.69878 0.39466,-0.16177 0.27374,0.99473 l -0.11756,1.12448 -2.948766,-0.0307 c -1.62183,-0.0169 -2.74042,-0.0851 -2.48575,-0.15169 z m 11.641656,0 c 0.41068,-0.10732 0.46302,-0.50542 0.46302,-3.52178 0,-3.01636 -0.0523,-3.41446 -0.46302,-3.52178 -0.25466,-0.0665 0.81151,-0.13481 2.36926,-0.1517 l 2.83229,-0.0307 0.1705,0.90888 c 0.24053,1.28215 -0.13156,1.7475 -0.56777,0.71006 -0.35841,-0.85241 -1.23829,-1.35435 -2.37411,-1.35435 -0.6045,0 -0.64423,0.0898 -0.64423,1.4552 0,1.27095 0.0659,1.45521 0.52072,1.45521 0.29597,0 0.69108,-0.31403 0.91545,-0.7276 0.38406,-0.70794 0.39473,-0.68111 0.39473,0.99219 0,1.6733 -0.0107,1.70012 -0.39473,0.99218 -0.22437,-0.41356 -0.61948,-0.7276 -0.91545,-0.7276 -0.4645,0 -0.52072,0.18569 -0.52072,1.71979 v 1.71979 h 1.07036 c 1.13567,0 2.36922,-0.88916 2.36922,-1.70776 0,-0.2249 0.13395,-0.4089 0.29766,-0.4089 0.19226,0 0.23911,0.29275 0.13229,0.82682 -0.0909,0.45475 -0.16536,0.99053 -0.16536,1.19062 0,0.28894 -0.6125,0.35749 -2.97657,0.33311 -1.6371,-0.0169 -2.7682,-0.0851 -2.51354,-0.15169 z m 13.49375,0 c 0.41065,-0.10731 0.46302,-0.50526 0.46302,-3.5183 v -3.3973 l -0.7276,0.18697 c -0.4572,0.11748 -0.8751,0.50017 -1.12448,1.02972 -0.54927,1.16638 -0.79375,1.06276 -0.79375,-0.33641 v -1.19063 h 3.27422 3.27422 l 0.16536,0.82683 c 0.35541,1.77702 -0.0928,2.18601 -0.72844,0.66471 -0.25252,-0.60436 -0.5911,-0.93165 -1.05567,-1.02046 -0.37616,-0.0719 -0.74625,-0.0684 -0.82243,0.008 -0.0762,0.0762 -0.13851,1.59867 -0.13851,3.38331 0,3.1546 0.0165,3.24798 0.59531,3.35945 0.32743,0.0631 -0.17859,0.11707 -1.12448,0.12 -0.94588,0.003 -1.51143,-0.0491 -1.25677,-0.11566 z M 61.118753,132.30699 c -0.800364,-0.10787 -2.158457,-0.44027 -3.017983,-0.73867 -1.849017,-0.6419 -3.141317,-0.69424 -3.5966,-0.14565 -0.181158,0.21828 -0.731517,0.39687 -1.223022,0.39687 h -0.893645 v -4.49791 c 0,-2.47386 -0.0047,-4.58722 -0.01048,-4.69636 -0.0058,-0.10914 0.208973,-0.23342 0.477194,-0.27617 0.381113,-0.0607 0.586003,0.23419 0.937673,1.34982 0.599176,1.90081 2.223681,4.36675 3.589169,5.44823 3.41783,2.70698 8.631915,2.50911 10.281779,-0.39017 1.023133,-1.79793 0.626423,-3.63091 -1.092482,-5.04778 -0.530275,-0.4371 -2.717958,-1.48813 -4.861516,-2.33562 -2.143558,-0.84749 -4.404209,-1.8322 -5.023669,-2.18825 -3.417915,-1.96452 -4.611279,-5.99252 -2.931936,-9.89626 1.622318,-3.77118 6.748917,-5.43026 11.361915,-3.67696 1.694131,0.6439 2.339949,0.6768 3.030638,0.15439 0.282475,-0.21366 0.841012,-0.39225 1.241195,-0.39688 l 0.727604,-0.008 v 3.83646 c 0,3.80349 -0.0051,3.83642 -0.595313,3.83194 -0.46835,-0.004 -0.731877,-0.31986 -1.235652,-1.48315 -0.849587,-1.96183 -2.891807,-4.17319 -4.378246,-4.74086 -0.842516,-0.32176 -1.744656,-0.41732 -3.281143,-0.34754 -1.91621,0.087 -2.19637,0.17023 -2.92568,0.86895 -1.46547,1.40401 -1.30645,3.79775 0.332829,5.0101 0.461127,0.34104 2.743413,1.36364 5.071746,2.27246 2.328334,0.90882 4.803929,2.01335 5.501324,2.45451 4.813936,3.04521 4.722177,10.50474 -0.169634,13.79034 -2.105662,1.41428 -4.32739,1.85539 -7.316065,1.45257 z m 25.919835,-0.005 c -2.809056,-0.25767 -4.858014,-1.08981 -6.330422,-2.57098 -0.666413,-0.67037 -1.371913,-1.69511 -1.567777,-2.27719 -0.262825,-0.78108 -0.390611,-3.67492 -0.487784,-11.04636 l -0.131667,-9.98802 h -1.557342 c -1.380953,0 -1.557342,-0.0599 -1.557342,-0.52917 0,-0.51476 0.176389,-0.52916 6.482292,-0.52916 6.305902,0 6.482291,0.0144 6.482291,0.52916 0,0.47069 -0.176389,0.52917 -1.596014,0.52917 h -1.596015 l 0.07466,10.78177 c 0.07389,10.67094 0.08073,10.79028 0.664762,11.60905 0.922169,1.29281 2.245291,1.79864 4.701564,1.79743 2.3973,-0.001 3.34878,-0.36916 4.96896,-1.92164 1.6316,-1.56343 1.77814,-2.47109 1.77644,-11.00369 -8.4e-4,-4.22839 -0.11762,-7.84461 -0.27117,-8.39748 -0.36258,-1.3054 -1.06387,-2.11708 -2.14113,-2.47816 -0.5921,-0.19846 -0.92204,-0.4928 -0.97806,-0.87255 -0.0834,-0.56534 -0.0326,-0.57306 3.77031,-0.57306 3.659836,0 3.854856,0.0264 3.854856,0.5216 0,0.36385 -0.25406,0.58744 -0.84006,0.73928 -1.053546,0.27301 -1.801326,1.25568 -2.089126,2.7454 -0.12252,0.6342 -0.22911,4.72497 -0.23687,9.09059 -0.0138,7.78837 -0.0259,7.96236 -0.64136,9.26042 -1.67737,3.53771 -5.30409,5.0835 -10.753997,4.58359 z m 31.354312,-10.88618 -8.72311,-11.22134 -0.078,8.36509 c -0.0429,4.6008 -0.003,8.89046 0.0888,9.53258 0.19937,1.39525 1.32092,2.66897 2.35011,2.66897 0.50542,0 0.68181,0.1369 0.68181,0.52917 0,0.50564 -0.17639,0.52916 -3.96875,0.52916 -3.70417,0 -3.96875,-0.0331 -3.96875,-0.49609 0,-0.33068 0.24495,-0.54509 0.73463,-0.64302 1.11792,-0.22359 2.12712,-1.1566 2.42978,-2.24636 0.16375,-0.58958 0.27281,-4.85954 0.2737,-10.71562 l 10e-4,-9.73546 -0.64943,-0.64943 c -0.35719,-0.35719 -0.88323,-0.64944 -1.16898,-0.64944 -0.86922,0 -1.35659,-0.29533 -1.35659,-0.82205 0,-0.47274 0.26368,-0.50067 4.69636,-0.4975 l 4.69635,0.003 6.35,8.21986 6.35,8.21986 0.0772,-5.77583 c 0.0425,-3.17671 0.008,-6.15928 -0.0767,-6.62794 -0.20659,-1.14379 -1.30964,-2.40246 -2.3376,-2.66738 -0.57405,-0.14794 -0.86459,-0.39852 -0.92251,-0.79563 -0.0838,-0.5746 -0.0497,-0.57967 3.90261,-0.57967 3.75578,0 3.98715,0.0295 3.98715,0.50814 0,0.34454 -0.24486,0.56193 -0.76052,0.67518 -0.71486,0.15701 -1.50214,0.82211 -2.04439,1.72709 -0.13079,0.21829 -0.29733,5.75469 -0.37009,12.30313 l -0.13229,11.90625 -0.6696,0.0781 c -0.59683,0.0696 -1.61752,-1.14127 -9.39271,-11.14321 z M 1.1545126e-6,89.767965 v -1.57032 L 2.3151052,88.317555 c 1.273308,0.066 11.1852608,0.35525 22.0265638,0.6429 10.841302,0.28764 21.169974,0.59513 22.952605,0.6833 l 3.241146,0.16031 v 0.76711 0.76711 H 25.267711 1.1545126e-6 Z M 134.14375,90.668525 c 0,-0.36837 0.14883,-0.7168 0.33073,-0.77429 0.1819,-0.0575 10.62964,-0.35051 23.21719,-0.65116 12.58755,-0.30064 23.86872,-0.60775 25.06927,-0.68246 l 2.18281,-0.13583 v 1.28147 1.28147 l -10.36208,0.17528 c -5.69915,0.0964 -17.12915,0.17528 -25.4,0.17528 H 134.14375 Z M 29.104169,68.471575 C 9.6869112,61.476015 5.4381142,59.860185 5.5025862,59.495805 c 0.04324,-0.2444 0.281369,-0.8977 0.529166,-1.45177 l 0.450541,-1.00741 23.3668178,9.31886 c 12.851749,5.12538 23.413824,9.36587 23.471277,9.42332 0.156073,0.15608 -0.174455,1.27575 -0.368431,1.24807 -0.09217,-0.0131 -10.823673,-3.86303 -23.847788,-8.5553 z m 102.525261,8.0476 c -0.10124,-0.319 -0.083,-0.66805 0.0406,-0.77569 0.55211,-0.4808 46.73498,-18.29894 46.91113,-18.09911 0.37272,0.42282 1.05747,2.45014 0.86572,2.56308 -0.23941,0.14102 -46.59605,16.61965 -47.19589,16.77696 -0.27822,0.073 -0.50454,-0.0964 -0.6216,-0.46524 z m -7.3787,-12.40109 c -0.4144,-0.4579 0.5182,-1.31838 18.62489,-17.184552 l 19.06114,-16.702511 0.92016,1.018511 c 0.50609,0.560181 0.92017,1.135954 0.92017,1.279496 0,0.18726 -30.88259,25.535646 -38.51822,31.615696 -0.54247,0.43196 -0.59436,0.43059 -1.00814,-0.0266 z M 44.844908,51.893525 C 36.551304,45.042034 27.826589,37.831516 25.456652,35.870152 l -4.308975,-3.566116 0.835868,-1.055369 c 0.459728,-0.580454 0.980768,-1.019701 1.157868,-0.976106 0.1771,0.04359 8.777166,7.520197 19.111259,16.614672 16.345056,14.384402 18.751559,16.595782 18.499442,16.999482 -0.159399,0.25524 -0.410891,0.46407 -0.558871,0.46407 -0.14798,0 -7.054731,-5.60577 -15.348335,-12.45726 z m 68.462902,3.12683 c -0.32742,-0.15149 -0.59531,-0.36421 -0.59531,-0.47271 0,-0.18079 24.23675,-43.890558 24.46177,-44.115578 0.0542,-0.05419 0.58898,0.178866 1.18841,0.517905 0.70826,0.400597 1.05322,0.763271 0.9852,1.035799 -0.0984,0.394116 -24.93865,42.777964 -25.28413,43.141164 -0.0883,0.0929 -0.42851,0.0449 -0.75594,-0.10658 z M 58.340628,33.64945 C 51.355628,21.857473 45.604975,12.049796 45.5614,11.854612 c -0.06934,-0.310581 2.258535,-1.9336939 2.438995,-1.700593 0.0381,0.04921 5.513332,10.027152 12.16719,22.173207 11.072854,20.212559 12.058559,22.112519 11.633351,22.423439 -0.255515,0.18684 -0.531112,0.33949 -0.61244,0.33922 -0.08133,-2.6e-4 -5.862868,-9.648459 -12.847868,-21.440435 z M 84.537894,49.732554 C 84.329876,49.119214 75.13701,0.50266407 75.214416,0.42525907 c 0.04216,-0.04216 0.724052,-0.112489 1.515322,-0.156293 l 1.438673,-0.07964 3.732679,23.81249993 c 2.052973,13.096876 3.814145,24.318517 3.913715,24.93698 0.173167,1.075606 0.15179,1.124479 -0.491853,1.124479 -0.370089,0 -0.723365,-0.148828 -0.785058,-0.330729 z m 14.46757,-0.264583 c 0.0621,-0.327422 1.891716,-11.591661 4.065736,-25.031642 L 107.02396,-9.2155034e-7 108.31661,0.15259107 c 0.71096,0.08393 1.35556,0.215503 1.43245,0.292394 0.1049,0.104896 -4.74826,26.08295293 -9.13364,48.89069393 -0.11545,0.600429 -0.27825,0.727604 -0.931416,0.727604 -0.67792,0 -0.77531,-0.08544 -0.67854,-0.595312 z"
     id="path1"
     inkscape:export-filename="SUN.svg"
     inkscape:export-xdpi="96"
     inkscape:export-ydpi="96" /></svg>
