<?xml version="1.0" encoding="UTF-8" standalone="no"?>
<!-- Created with Inkscape (http://www.inkscape.org/) -->

<svg
   width="150.99855mm"
   height="190.2466mm"
   viewBox="0 0 150.99855 190.2466"
   version="1.1"
   id="svg1"
   xml:space="preserve"
   xmlns:inkscape="http://www.inkscape.org/namespaces/inkscape"
   xmlns:sodipodi="http://sodipodi.sourceforge.net/DTD/sodipodi-0.dtd"
   xmlns:xlink="http://www.w3.org/1999/xlink"
   xmlns="http://www.w3.org/2000/svg"
   xmlns:svg="http://www.w3.org/2000/svg"><sodipodi:namedview
     id="namedview1"
     pagecolor="#ffffff"
     bordercolor="#666666"
     borderopacity="1.0"
     inkscape:showpageshadow="2"
     inkscape:pageopacity="0.0"
     inkscape:pagecheckerboard="0"
     inkscape:deskcolor="#d1d1d1"
     inkscape:document-units="mm"><inkscape:page
       x="0"
       y="2.6680472e-22"
       width="150.99855"
       height="190.2466"
       id="page2"
       margin="0"
       bleed="0" /></sodipodi:namedview><defs
     id="defs1" /><path
     style="fill:#000000"
     d="m 44.697875,189.66238 c -2.60842,-1.75782 -2.79975,-6.24321 -0.35778,-8.3873 0.81421,-0.71488 1.10411,-0.80562 2.56251,-0.80202 1.9215,0.005 2.4326,0.23828 2.19053,1.00095 -0.15398,0.48516 -0.32361,0.52626 -1.61977,0.39249 -1.18475,-0.12228 -1.54983,-0.0585 -2.0095,0.35102 -1.2186,1.08566 -1.6214,3.27808 -0.91352,4.97228 0.69172,1.65551 2.14192,2.16811 3.63634,1.28534 0.68288,-0.40339 0.81055,-0.4116 1.02896,-0.0662 0.4267,0.67491 0.28856,0.98079 -0.64244,1.42258 -1.28514,0.60984 -2.81868,0.54288 -3.87533,-0.16919 z m 12.44813,-4.43088 v -4.7625 h 0.66146 c 0.64256,0 0.66146,0.0529 0.66146,1.85209 v 1.85208 h 1.98437 1.98438 v -1.85208 -1.85209 h 0.79375 0.79375 v 4.7625 4.7625 h -0.79375 -0.79375 v -2.24895 -2.24896 h -1.98438 -1.98437 v 2.24896 c 0,2.2225 -0.008,2.24895 -0.66146,2.24895 h -0.66146 z m 13.869908,4.29863 c 0.72906,-2.29707 3.61292,-8.92883 3.88276,-8.92883 0.28585,0 3.67858,8.46304 3.67858,9.17609 0,0.11914 -0.33996,0.21661 -0.75547,0.21661 -0.62555,0 -0.79773,-0.14788 -1.00116,-0.85989 -0.24143,-0.84501 -0.27546,-0.86123 -1.9656,-0.93683 l -1.71991,-0.0769 -0.33876,0.93683 c -0.28549,0.78951 -0.4637,0.93683 -1.13322,0.93683 -0.63678,0 -0.76523,-0.0921 -0.64722,-0.46387 z m 4.91551,-2.58283 c 0,-0.44112 -0.9093,-3.3033 -1.04945,-3.3033 -0.0929,0 -0.38999,0.62508 -0.66016,1.38907 -0.27018,0.76398 -0.54456,1.53789 -0.60974,1.71979 -0.0838,0.23387 0.23845,0.33073 1.10042,0.33073 0.67041,0 1.21893,-0.0613 1.21893,-0.13629 z m 9.78958,-1.7158 v -4.7625 h 0.66146 0.66146 v 4.10105 4.10104 h 2.11667 c 2.08139,0 2.11666,0.011 2.11666,0.66146 v 0.66145 h -2.77812 -2.77813 z m 12.7,0 v -4.7625 h 2.910417 2.91042 v 0.66146 c 0,0.65044 -0.0353,0.66146 -2.11667,0.66146 h -2.11667 v 1.19063 1.19062 h 1.45521 c 1.37583,0 1.45521,0.0361 1.45521,0.66146 0,0.62538 -0.0794,0.66146 -1.45521,0.66146 h -1.45521 v 1.5875 1.5875 h 2.11667 c 2.08139,0 2.11667,0.011 2.11667,0.66146 v 0.66145 h -2.91042 -2.910417 z m 15.345837,0.66146 v -4.10104 h -1.45521 c -1.38005,0 -1.45521,-0.0345 -1.45521,-0.66872 v -0.66872 l 3.77031,0.0734 c 3.68305,0.0717 3.77227,0.0872 3.85486,0.66872 0.0797,0.56126 -0.007,0.59531 -1.52135,0.59531 h -1.6059 v 4.10104 4.10104 h -0.79375 -0.79375 z m -100.8053,-8.0636 c -0.525598,-0.33227 -0.477764,-5.80593 0.105257,-12.04473 0.231183,-2.47386 0.601712,-7.17682 0.823398,-10.45104 1.508845,-22.28511 3.362194,-33.16647 8.073348,-47.40013 5.09093,-15.381065 11.633151,-27.246315 20.436962,-37.065335 l 2.10032,-2.34251 -7.766474,5.16148 c -6.818095,4.53121 -7.754618,5.23543 -7.669408,5.76701 0.05339,0.33304 0.112281,1.61756 0.13088,2.85448 0.02922,1.94305 -0.06278,2.44691 -0.676286,3.70417 -0.847675,1.73713 -1.597096,2.64584 -2.182058,2.64584 -0.772667,0 -0.738159,-0.74847 0.08173,-1.7726 0.442746,-0.55304 0.977631,-1.42225 1.188633,-1.93157 0.408075,-0.98502 0.851573,-3.43959 0.621475,-3.43959 -0.07546,0 -0.436875,0.50602 -0.803154,1.12448 -0.944173,1.59425 -3.20885,3.74998 -3.729567,3.55016 -0.716783,-0.27505 -0.459083,-1.11287 0.605427,-1.96834 0.971026,-0.78033 2.681486,-3.05408 2.681486,-3.56454 0,-0.1311 -1.069822,0.33329 -2.377383,1.03197 -2.249319,1.20189 -2.401921,1.24578 -2.832931,0.81477 -0.59509,-0.59509 -0.438009,-0.73262 2.441096,-2.13724 l 2.372343,-1.15739 -1.634846,-0.19365 c -1.850318,-0.21916 -2.600251,-0.0613 -3.463836,0.72935 -0.567138,0.51922 -0.626127,0.52464 -1.053849,0.0969 -0.597009,-0.59701 -0.234197,-1.20139 1.127224,-1.87774 0.918493,-0.45632 1.229164,-0.47895 3.024316,-0.22033 1.100369,0.15852 2.029176,0.25972 2.064016,0.22488 0.03484,-0.0348 -0.441337,-0.34918 -1.058173,-0.69854 -1.105048,-0.62586 -2.686684,-0.74879 -5.884019,-0.45732 -0.636075,0.058 -0.79375,-0.0305 -0.79375,-0.44518 0,-1.1757 4.063,-1.51242 6.414531,-0.53161 0.546591,0.22798 1.375394,0.78382 1.841783,1.2352 l 0.847981,0.8207 2.327019,-1.38959 c 3.761968,-2.24648 15.012497,-9.2921 15.709297,-9.83792 0.35235,-0.27601 0.46205,-0.44725 0.24376,-0.38054 -2.82295,0.86274 -25.359892,5.55506 -28.638259,5.96264 -2.298548,0.28577 -3.320913,0.52906 -4.469091,1.0635 -0.651143,0.30308 -0.703547,0.46249 -0.814861,2.4787 -0.09526,1.72543 -0.278331,2.46706 -0.918757,3.72195 -0.841528,1.64893 -5.2788538,6.98971 -5.8294068,7.01628 -0.338725,0.0164 -0.869205,-0.79004 -0.869205,-1.3213 0,-0.1723 1.182417,-1.49074 2.627593,-2.92987 2.9396158,-2.92731 3.8181398,-4.55436 3.6689658,-6.79504 l -0.07885,-1.18437 -1.6413188,2.00287 c -1.159576,1.415 -2.191058,2.33853 -3.514299,3.14649 -3.490441,2.13122 -3.161968,1.98437 -3.445931,1.54049 -0.645201,-1.00856 -0.307664,-1.47141 2.106417,-2.8884 1.302626,-0.76461 2.880204,-1.94556 3.50573,-2.62433 l 1.137318,-1.23415 -2.513541,-0.21097 c -1.609266,-0.13507 -3.123318,-0.1059 -4.208488,0.0811 -1.79176001,0.30874 -2.12828601,0.17444 -2.13746101,-0.85299 -0.0083,-0.93232 0.99373301,-1.13585 5.25385901,-1.06712 3.656648,0.059 4.032753,0.024 3.725259,-0.34651 -0.977698,-1.17805 -3.834531,-2.31145 -6.987387,-2.77212 C 0.34742719,68.791245 0.00689919,68.563035 6.0192136e-5,67.558065 -0.00333981,67.061195 0.13820319,66.963405 0.85590419,66.966665 c 2.45524501,0.0112 6.32071901,1.4186 8.24844601,3.00329 l 1.3031328,1.07124 -0.7627388,-1.40141 c -1.505563,-2.76621 -4.899138,-5.17569 -7.614882,-5.40665 -1.61391301,-0.13725 -1.96863701,-0.45882 -1.54113001,-1.3971 0.303655,-0.66645 0.387707,-0.69245 1.68277801,-0.52066 3.761077,0.49893 7.8679788,4.10988 9.3481348,8.21926 0.594092,1.64938 0.500092,1.55255 1.162838,1.19786 0.30853,-0.16512 1.896305,-0.4744 3.52839,-0.68729 4.398194,-0.57371 11.114588,-1.75043 21.416459,-3.7522 l 9.188616,-1.78546 -3.23549,-0.30926 c -3.10919,-0.2972 -18.920298,-2.08438 -20.830283,-2.35451 -0.897602,-0.12696 -0.945783,-0.0884 -1.568892,1.25632 -1.239758,2.67546 -4.591276,5.06849 -7.139507,5.09771 -1.01868,0.0117 -1.213476,-0.0664 -1.213476,-0.48642 0,-0.59227 0.348887,-0.78985 2.116667,-1.19871 1.406201,-0.32524 3.755104,-1.76973 4.290999,-2.63881 0.318914,-0.51719 0.306587,-0.51706 -1.190625,0.0134 -0.929361,0.32924 -2.278244,0.55223 -3.497249,0.57814 -1.951525,0.0415 -1.984375,0.0312 -1.984375,-0.61928 0,-0.63313 0.08602,-0.66845 2.009008,-0.82484 2.318121,-0.18853 5.021289,-0.98004 4.445673,-1.30174 -0.203096,-0.11351 -1.321764,-0.40022 -2.485931,-0.63714 -1.164167,-0.23691 -2.314027,-0.49044 -2.555245,-0.56338 -0.59996,-0.18143 -0.845581,-0.93142 -0.43104,-1.31616 0.265527,-0.24644 0.966232,-0.15755 3.183963,0.4039 3.056984,0.77392 3.03156,0.78845 1.535346,-0.87749 -0.898321,-1.00022 -1.903877,-1.49773 -3.027187,-1.49773 -1.037491,0 -1.331787,-0.28735 -1.086336,-1.060704 0.124567,-0.392474 0.400946,-0.526799 1.08391,-0.526799 1.420425,0 2.497287,0.589983 4.008568,2.196183 1.495164,1.58907 1.702689,1.52917 0.844436,-0.24374 -0.665092,-1.373902 -2.302487,-2.895492 -3.854758,-3.582135 -1.180692,-0.522277 -1.277754,-0.657832 -0.996266,-1.391377 0.214564,-0.559147 0.705409,-0.527386 1.9918,0.128881 2.395941,1.222319 4.718387,4.480641 4.724183,6.627881 0.0024,0.90036 0.06186,0.96736 0.994772,1.12151 4.544883,0.75098 21.391145,3.09313 21.787885,3.0292 0.29938,-0.0482 -1.45587,-1.09016 -4.32508,-2.56737 C 32.395732,57.836175 24.361103,53.481189 21.559547,51.744826 20.104339,50.84291 18.358984,49.89734 17.68098,49.643559 l -1.232734,-0.461419 -1.677683,1.705753 c -2.063306,2.097828 -3.461803,2.674855 -8.0729188,3.330928 -2.679407,0.381227 -3.337425,0.404215 -3.569406,0.124695 -0.405908,-0.489089 0.417273,-1.665737 1.173346,-1.67717 2.462128,-0.03723 6.1712068,-0.573532 7.2873628,-1.05369 1.331381,-0.572744 3.648532,-2.645865 2.946693,-2.636362 -0.211435,0.0029 -1.322383,0.170499 -2.468775,0.372523 -1.773599,0.312555 -2.4639068,0.31303 -4.6302088,0.0032 -1.400222,-0.200273 -2.702596,-0.367909 -2.894163,-0.372523 -0.494659,-0.01192 -0.287724,-1.343338 0.262296,-1.687613 0.31939,-0.199917 1.155989,-0.143129 2.995469,0.203329 2.3249368,0.437892 4.7556948,0.434286 5.4715188,-0.0081 0.302997,-0.187262 -3.6803778,-3.682986 -5.0075428,-4.394511 -1.178579,-0.631865 -1.364621,-1.100257 -0.763523,-1.922307 0.34835,-0.476397 0.40148,-0.469802 1.521354,0.188862 0.638219,0.375374 2.2181488,1.650207 3.5109538,2.832962 1.292806,1.182755 2.38744,2.11358 2.432522,2.068498 0.193397,-0.193397 -0.482496,-2.462524 -1.091442,-3.664221 -0.364154,-0.718624 -1.327475,-2.09093 -2.140712,-3.049567 -1.32597,-1.563042 -1.44879,-1.808436 -1.189712,-2.377049 0.158896,-0.34874 0.465708,-0.634072 0.681804,-0.634072 1.017545,0 4.902247,5.955052 4.914161,7.533161 0.0022,0.295147 0.104488,0.695063 0.227243,0.888701 0.157058,0.247752 0.273453,0.100758 0.392823,-0.496093 0.592877,-2.964387 -0.487665,-6.977928 -2.391069,-8.881332 -0.936759,-0.936759 -1.071173,-1.392146 -0.561382,-1.901937 0.569507,-0.569506 1.211927,-0.337173 2.173308,0.785985 1.389542,1.623367 2.049146,3.598898 2.206421,6.608287 0.110316,2.110869 0.03596,2.873166 -0.429835,4.406699 -0.309775,1.019865 -0.563227,1.960727 -0.563227,2.090805 0,0.130077 0.408938,0.384378 0.908751,0.565113 0.499813,0.180734 1.779735,0.89583 2.844271,1.589102 2.658086,1.731059 10.298637,6.191861 17.281354,10.089419 3.201457,1.78696 6.237557,3.49416 6.746877,3.79378 0.7219,0.42466 0.45943,0.0517 -1.19063,-1.69185 -1.16416,-1.23014 -4.589224,-4.86806 -7.611241,-8.084275 l -5.494578,-5.847665 -1.120006,0.559904 c -0.916474,0.458156 -1.600817,0.559905 -3.765839,0.559905 -2.320481,0 -2.80851,-0.0835 -3.96875,-0.679056 -0.842797,-0.432609 -1.352,-0.876501 -1.403052,-1.223095 -0.119,-0.807899 0.663881,-0.967344 1.572595,-0.320282 1.152379,0.820566 3.306479,1.32008 4.835124,1.121217 l 1.300501,-0.169184 -1.299947,-0.510624 c -1.894316,-0.744095 -4.195741,-2.38893 -4.296174,-3.070489 -0.129867,-0.881302 0.658743,-1.014985 1.48956,-0.252507 1.13258,1.03942 2.310025,1.777306 3.513726,2.201997 0.614397,0.216772 1.158991,0.352227 1.210207,0.30101 0.05122,-0.05122 -0.697561,-1.122542 -1.66395,-2.380724 -1.471544,-1.915864 -1.703095,-2.352641 -1.424913,-2.687829 0.664556,-0.800742 0.970547,-0.524041 3.507378,3.171649 l 0.726471,1.058333 0.0011,-1.371838 c 0.0014,-1.653809 -0.335693,-2.624567 -1.240693,-3.573304 -0.749342,-0.785557 -0.675183,-1.53715 0.151669,-1.53715 0.67661,0 1.793926,1.353166 2.136847,2.587904 0.150301,0.541184 0.278158,1.579284 0.284126,2.306888 0.01051,1.28081 0.02289,1.301863 0.388975,0.661458 0.501578,-0.877419 0.479811,-3.564607 -0.03965,-4.894791 -0.576092,-1.475199 -0.59042,-2.346467 -0.04041,-2.456852 0.705511,-0.141591 1.592213,1.881086 1.742512,3.974889 0.14264,1.9871 -0.2621,3.832509 -1.064199,4.852214 -0.284137,0.361221 -0.458176,0.802093 -0.386755,0.979715 0.126225,0.313916 12.537867,14.477202 13.846877,15.801072 l 0.65403,0.66146 -0.24847,-0.66146 c -0.13666,-0.3638 -1.46697,-3.57849 -2.95625,-7.143746 -3.266163,-7.819074 -5.716421,-14.070575 -6.844371,-17.462501 -0.45972,-1.382448 -1.107174,-2.989792 -1.438788,-3.571875 -0.573186,-1.006116 -0.654554,-1.051806 -1.64915,-0.926042 -2.482548,0.313913 -4.459546,0.122449 -5.979766,-0.579115 -2.035541,-0.93938 -6.046658,-3.609626 -6.046658,-4.02533 0,-0.185734 0.288563,-0.469177 0.64125,-0.629872 0.573576,-0.261339 0.873742,-0.123696 2.844271,1.304251 3.133021,2.27035 4.016087,2.670972 6.202214,2.813772 2.303587,0.150472 2.698407,-0.216815 1.103382,-1.026435 -1.994017,-1.012144 -3.2088,-1.979423 -4.955538,-3.945882 l -1.705007,-1.919555 0.609879,-0.49385 c 0.335433,-0.271618 0.705066,-0.49385 0.821408,-0.49385 0.116341,0 0.9859,0.935999 1.932354,2.079999 0.991625,1.198599 2.30276,2.438067 3.094122,2.924997 l 1.373296,0.844998 -0.190735,-1.668226 c -0.176998,-1.548081 -0.911734,-4.790465 -1.317728,-5.815123 -0.197587,-0.498673 0.72611,-1.145014 1.313974,-0.919429 0.525282,0.201569 1.147199,2.385125 1.480663,5.198617 0.385979,3.256568 0.528056,3.481949 1.264906,2.00655 0.738114,-1.477929 1.125599,-3.703719 1.060218,-6.090094 -0.04465,-1.629878 0.01507,-1.877961 0.535206,-2.223322 0.964347,-0.640303 1.230064,-0.06923 1.165846,2.505623 -0.06761,2.71096 -0.651136,5.158768 -1.556839,6.530747 -0.555355,0.841265 -0.583984,0.965522 -0.171607,0.744825 0.994405,-0.53219 2.776708,-2.762 3.585007,-4.485141 0.69919,-1.490557 0.82662,-2.068587 0.81375,-3.691198 -0.0142,-1.788502 0.0272,-1.934548 0.58854,-2.075429 0.84322,-0.211636 1.06927,-6.15e-4 1.25701,1.173444 0.1978,1.236998 -0.35384,3.501022 -1.31818,5.410003 -0.80905,1.601585 -3.812336,4.677026 -5.080087,5.202145 -0.64209,0.265963 -0.818563,0.469463 -0.680179,0.784349 0.102776,0.233864 0.541291,1.437238 0.974478,2.674165 0.433187,1.236927 1.544962,4.409655 2.470612,7.050506 1.472516,4.201058 6.885956,18.614304 7.537766,20.069284 0.17066,0.38094 0.20162,0.23272 0.11055,-0.52916 -0.0696,-0.58209 -0.26249,-3.55865 -0.42867,-6.614588 -0.16619,-3.055937 -0.43715,-7.981405 -0.60214,-10.945483 l -0.29999,-5.389233 -1.64028,-0.50324 c -2.72887,-0.837218 -5.03172,-2.993933 -6.05345,-5.669295 -0.454485,-1.190052 -0.454583,-1.254935 -0.0024,-1.585595 0.682781,-0.499261 1.042891,-0.251364 1.428181,0.983151 0.470107,1.506276 1.659288,3.157865 2.885688,4.007755 0.56618,0.392369 1.10087,0.713398 1.1882,0.713398 0.0873,0 -0.18362,-0.632145 -0.60209,-1.404766 -0.85254,-1.574057 -1.69051,-4.512836 -1.4589,-5.116412 0.0869,-0.226376 0.39857,-0.358931 0.7299,-0.3104 0.47917,0.07018 0.65785,0.409233 1.04249,1.978128 0.25532,1.041383 0.79929,2.529665 1.20884,3.307292 l 0.74463,1.413867 0.062,-1.587501 c 0.13177,-3.375833 0.36226,-4.848674 0.78412,-5.010555 0.74259,-0.284961 1.11619,0.334789 0.999,1.657196 -0.0603,0.680181 -0.1686,2.010599 -0.24071,2.956484 l -0.1311,1.719792 0.7766,-0.906329 c 1.13673,-1.326616 1.63567,-2.546036 1.54659,-3.779876 -0.0588,-0.814366 0.0395,-1.157969 0.39317,-1.374762 1.04556,-0.64085 1.62465,1.580231 0.87538,3.357486 -0.19742,0.468269 -0.84465,1.463338 -1.43828,2.211264 -1.26121,1.589002 -0.7602,1.675884 0.99593,0.172704 1.14103,-0.976683 1.98074,-2.376219 2.49835,-4.164017 0.25433,-0.878419 0.42829,-1.07272 0.96041,-1.07272 0.57293,0 0.64164,0.103487 0.58067,0.874619 -0.0949,1.200745 -1.24395,3.416189 -2.40562,4.638345 -0.99003,1.041578 -3.11785,2.292245 -3.89991,2.292245 -0.40469,0 -0.42346,0.742378 -0.23921,9.458854 0.10997,5.20237 0.27386,10.587312 0.36421,11.966532 l 0.16426,2.50768 2.61252,-8.460804 c 2.24595,-7.273667 4.96039,-15.338989 7.00092,-20.801626 0.30672,-0.821097 0.63437,-1.972542 0.72811,-2.558765 0.16693,-1.043907 0.14747,-1.077578 -0.94467,-1.634746 -1.59992,-0.816217 -3.38956,-2.5586 -4.13115,-4.022075 -0.72124,-1.423296 -2.48718,-6.705322 -2.48744,-7.440044 -1.3e-4,-0.380834 0.17481,-0.462685 0.84822,-0.396875 0.93697,0.09157 0.89097,-0.01099 2.09409,4.668617 0.33578,1.306039 0.90302,2.691901 1.39183,3.4005 0.81535,1.181952 2.93813,2.953516 3.21149,2.680152 0.0776,-0.07764 -0.23428,-1.140108 -0.69316,-2.36105 -0.74666,-1.986667 -0.83774,-2.539564 -0.86691,-5.262601 -0.0306,-2.856276 -1.7e-4,-3.046854 0.49657,-3.11037 1.03421,-0.132237 1.17136,0.241861 1.28984,3.518161 0.10573,2.923732 0.68201,5.688114 1.18243,5.672056 0.22603,-0.0073 2.76579,-4.523389 3.45635,-6.145993 0.29418,-0.691224 0.66599,-1.256771 0.82625,-1.256771 0.5647,0 1.31492,0.552727 1.31492,0.968767 0,0.582433 -1.25575,2.99087 -2.87475,5.513525 -0.74714,1.164167 -1.24501,2.154485 -1.10639,2.200707 1.00332,0.334538 4.87022,-2.634724 6.50685,-4.996391 0.77002,-1.111133 1.640519,-1.362361 2.235689,-0.645224 0.43518,0.524362 -0.0563,1.267556 -2.364549,3.575851 -1.14552,1.145521 -2.39057,2.073691 -3.54206,2.640566 -0.97659,0.480777 -1.74341,0.906359 -1.70403,0.945739 0.0394,0.03938 1.00952,-0.03358 2.15586,-0.16214 3.27239,-0.366983 5.714869,-1.716425 7.576179,-4.18574 l 0.66509,-0.882347 0.65783,0.536005 0.65782,0.536005 -0.51185,0.959402 c -0.98781,1.85152 -4.43731,3.836041 -7.618899,4.383206 -1.73742,0.2988 -1.78728,0.329756 -2.04904,1.272182 -0.36443,1.312039 -0.306,4.726985 0.10013,5.851541 l 0.33111,0.916861 0.3348,-1.710611 c 0.39912,-2.039266 1.92844,-5.483373 2.53884,-5.717605 0.24093,-0.09245 0.61755,0.01748 0.84743,0.247372 0.37532,0.375318 0.31122,0.620819 -0.68959,2.641138 -0.95573,1.929288 -1.74174,4.954942 -1.28722,4.954942 0.0766,0 1.06861,-1.041797 2.20454,-2.315104 2.099059,-2.352903 2.822499,-2.74908 3.386699,-1.854644 0.24586,0.389774 -0.0738,0.826408 -2.08231,2.844271 -2.558629,2.570535 -2.550409,2.697144 0.12974,1.997832 1.17789,-0.307338 1.68266,-0.630627 2.64873,-1.69642 0.96594,-1.065656 1.28125,-1.267625 1.65364,-1.059224 0.68841,0.38525 0.5584,1.159205 -0.3729,2.21989 -1.06677,1.214985 -1.88129,1.625455 -4.03698,2.034385 -0.95952,0.182018 -1.744569,0.415557 -1.744569,0.518975 0,0.373607 2.367139,0.531912 3.695109,0.247115 1.49129,-0.319824 2.63021,-0.843071 3.84584,-1.76687 0.59616,-0.453039 0.90941,-0.538908 1.25677,-0.344513 1.19265,0.667439 0.10651,1.901492 -2.68385,3.049341 -1.98606,0.816989 -5.18241,0.853783 -6.889579,0.07931 -0.94923,-0.43063 -1.23291,-0.467321 -1.48934,-0.192627 -1.61612,1.73126 -15.87912,20.017886 -16.65111,21.348436 -0.27044,0.46613 -0.85839,0.82411 7.27449,-4.42927 8.01919,-5.179941 15.194509,-9.585781 18.140479,-11.138746 1.17326,-0.618479 2.59932,-1.515848 3.16904,-1.994153 l 1.03585,-0.869644 -0.62265,-1.763724 c -0.96078,-2.721531 -0.73998,-4.953653 0.89184,-9.015655 1.49845,-3.730028 1.61508,-3.91503 2.25293,-3.573665 0.85291,0.456466 0.80543,1.055287 -0.25016,3.154743 -1.34522,2.675512 -2.12775,5.021476 -2.12775,6.37883 0,1.282854 0.50319,3.432801 0.80343,3.432801 0.1163,0 0.52943,-0.954799 0.91807,-2.121775 0.67225,-2.018612 1.02185,-2.61372 3.39655,-5.781839 1.11165,-1.48306 1.25867,-1.556869 1.87451,-0.941029 0.73267,0.732668 0.52592,1.153879 -2.05886,4.194529 -0.87666,1.031278 -2.41322,4.083782 -2.1754,4.321607 0.1541,0.154102 5.2449,-1.79089 6.55789,-2.505511 1.28698,-0.700461 1.33288,-0.706302 1.69188,-0.215334 0.9421,1.288392 0.07,1.925221 -4.72421,3.449708 -1.70987,0.543714 -3.10886,1.039325 -3.10886,1.101358 0,0.06203 0.44649,0.304704 0.99219,0.539268 1.23077,0.529032 4.81474,0.518155 7.03964,-0.02137 1.46014,-0.35407 1.5794,-0.34589 2.06706,0.14177 0.64624,0.646238 0.5285,1.037922 -0.46113,1.534 -1.20478,0.603928 -7.57769,0.558806 -8.95645,-0.06341 l -1.03848,-0.468657 0.50247,0.555222 c 0.78074,0.862704 3.52825,2.296713 5.26928,2.750195 1.9214,0.50046 3.12015,0.504328 4.49532,0.0145 1.20261,-0.428365 1.73177,-0.179062 1.73177,0.815894 0,1.254224 -2.66621,1.758041 -5.62804,1.063494 -2.89353,-0.678533 -5.91023,-2.514774 -7.61353,-4.634296 l -0.8345,-1.038428 -1.23019,0.944641 c -0.67661,0.519552 -1.88504,1.24585 -2.68541,1.613996 -2.04181,0.939176 -24.027949,13.78942 -24.924549,14.56766 -0.10231,0.0888 4.43172,-0.601 10.07562,-1.5329 l 10.261629,-1.69436 0.31207,-1.51089 c 0.54186,-2.623428 2.82713,-5.544741 4.97689,-6.36208 0.61277,-0.232973 0.79769,-0.199395 1.09102,0.198112 0.39898,0.540663 0.36535,0.575795 -1.86239,1.945532 -0.73568,0.452339 -1.58927,1.293607 -2.05052,2.020916 -1.01733,1.60416 -0.99758,1.85668 0.0809,1.0341 1.24646,-0.95072 3.78448,-2.060331 4.48507,-1.960853 0.37534,0.05329 0.62721,0.296756 0.67836,0.655718 0.0651,0.457175 -0.093,0.608975 -0.79375,0.761775 -1.18956,0.25939 -3.37592,1.28673 -4.1824,1.96526 l -0.66146,0.55651 2.91042,-0.0752 c 2.80761,-0.0725 2.91329,-0.055 2.99182,0.49614 0.0854,0.59956 -0.0363,0.62416 -4.70682,0.95161 l -0.92125,0.0646 1.61974,0.85989 c 1.69005,0.89722 2.44199,1.03603 3.25508,0.60088 0.34501,-0.18465 0.56925,-0.15629 0.78092,0.0988 0.65395,0.78795 -0.2262,1.47135 -1.90555,1.47957 -0.76298,0.004 -2.40119,-0.7257 -3.72425,-1.65826 -0.71724,-0.50555 -0.74344,-0.50726 -0.48474,-0.0316 0.83126,1.52838 2.83358,2.78343 5.01328,3.14233 0.96095,0.15822 1.12448,0.27796 1.12448,0.82335 0,0.53093 -0.13175,0.6382 -0.78383,0.6382 -2.31445,0 -5.70013,-2.25475 -6.48956,-4.32184 l -0.43427,-1.13714 -2.56232,0.3329 c -1.409269,0.18309 -5.690519,0.75652 -9.513879,1.27428 -3.82337,0.51776 -7.15116,0.94138 -7.39511,0.94138 -0.26259,0 -0.34099,0.0907 -0.19218,0.22243 0.13824,0.12234 2.8112,0.54835 5.9399,0.94669 7.8339,0.99741 17.601699,2.44435 20.732229,3.07115 1.43456,0.28723 3.22852,0.52223 3.98658,0.52223 h 1.3783 l 0.45522,-1.44414 c 0.54256,-1.72117 2.10249,-3.78145 3.66777,-4.84419 0.62316,-0.4231 2.36148,-1.4077 3.86293,-2.188 2.25253,-1.17064 2.77234,-1.35167 2.97252,-1.03526 0.63351,1.00139 0.31282,1.29707 -3.26226,3.00784 -1.92819,0.92269 -3.49933,1.87438 -4.12144,2.49648 -1.02167,1.02168 -2.34505,3.37644 -2.05856,3.66292 0.0865,0.0865 0.61204,-0.14379 1.16795,-0.51168 1.9952,-1.32036 3.84119,-2.09149 6.22754,-2.60145 1.33441,-0.28517 2.57583,-0.46106 2.75871,-0.39089 0.49569,0.19022 0.40164,1.4117 -0.13051,1.69503 -0.25467,0.13558 -1.53459,0.446 -2.84428,0.68981 -2.34174,0.43594 -4.01736,1.03465 -4.99211,1.78371 -0.4541,0.34896 -0.29306,0.45637 1.98437,1.3235 1.36322,0.51905 3.15721,1.09354 3.98664,1.27665 1.60431,0.35418 1.97508,0.75463 1.50755,1.62822 -0.42494,0.794 -1.86377,0.54491 -5.60613,-0.97054 -1.71582,-0.69482 -3.17299,-1.20999 -3.23815,-1.14482 -0.0652,0.0652 0.23274,0.67228 0.662,1.34916 0.85158,1.3428 3.23708,3.23857 5.28994,4.20394 1.51917,0.7144 1.76185,1.11468 1.19777,1.97559 -0.40035,0.611 -0.43236,0.61579 -1.26278,0.18906 -2.56115,-1.31613 -5.31877,-3.70005 -6.53919,-5.65302 l -0.57868,-0.92604 0.13109,1.12376 c 0.16744,1.43529 1.52656,4.34653 2.69474,5.77214 0.50339,0.61432 1.57726,1.44712 2.41803,1.87522 0.83187,0.42357 1.55487,0.89727 1.60667,1.05268 0.0518,0.1554 -0.11809,0.53891 -0.37754,0.85223 l -0.47172,0.56969 -1.33299,-0.62378 c -3.20697,-1.50069 -5.94305,-6.47388 -5.94305,-10.80226 v -1.80406 l -1.25677,-0.004 c -0.69122,-0.002 -1.98114,-0.17475 -2.86648,-0.38355 -2.81895,-0.66484 -12.953049,-2.46105 -20.879869,-3.70083 -4.22011,-0.66004 -7.97058,-1.261 -8.33438,-1.33547 -0.3638,-0.0745 4.22011,2.33788 10.18646,5.3608 l 10.847919,5.4962 1.01722,-1.02292 c 1.80846,-1.81861 5.34847,-3.01889 7.89915,-2.67828 1.27849,0.17072 1.93526,0.63818 1.73603,1.23563 -0.0818,0.24531 -0.84182,0.34165 -2.737,0.34691 -2.21797,0.006 -2.82833,0.10564 -3.94665,0.6433 l -1.32292,0.63601 2.12608,0.17649 c 2.72661,0.22634 4.88538,0.91943 4.88538,1.56849 0,0.94432 -0.60491,1.09038 -2.12451,0.51298 -1.40129,-0.53245 -5.01924,-1.01293 -5.01924,-0.66657 0,0.0971 1.0418,0.84628 2.3151,1.66477 1.27331,0.81849 2.3961,1.61307 2.49508,1.76574 0.19715,0.30405 -0.20701,1.23213 -0.53656,1.23213 -0.11313,0 -1.26484,-0.70942 -2.55936,-1.57648 -1.29452,-0.86706 -2.39835,-1.5318 -2.45295,-1.47719 -0.18579,0.18578 1.02676,2.64769 1.61151,3.27191 0.32031,0.34194 0.96934,0.78384 1.44228,0.98199 0.95339,0.39944 1.05527,0.68326 0.45922,1.27932 -0.98926,0.98926 -3.47513,-1.16655 -4.27645,-3.70864 -0.5192,-1.64709 -1.01048,-1.58578 -0.77979,0.0973 0.23162,1.6898 1.01293,3.2963 2.26238,4.65179 0.71399,0.77458 1.02956,1.32508 0.92131,1.60717 -0.68417,1.78293 -3.92766,-2.29977 -4.43699,-5.585 -0.0954,-0.61559 -0.0461,-1.68715 0.10968,-2.38125 0.2623,-1.16885 0.24014,-1.29129 -0.3003,-1.65887 -0.71398,-0.48561 -11.746999,-6.48681 -16.647079,-9.05485 l -3.57187,-1.87196 1.21522,1.29622 c 7.82663,8.34823 14.34726,15.67341 17.914009,20.12433 1.18495,1.47869 2.52181,2.9501 2.97079,3.26981 l 0.81634,0.58128 2.01153,-1.02085 c 1.91596,-0.97235 2.1258,-1.01964 4.41682,-0.99538 1.47796,0.0156 3.22134,0.23426 4.52195,0.56702 1.16417,0.29786 2.45182,0.61803 2.86145,0.71149 0.56872,0.12976 0.72509,0.30206 0.66146,0.72887 -0.16803,1.1272 -0.77686,1.16341 -3.93841,0.23424 -3.60171,-1.05853 -6.16027,-1.06485 -8.18345,-0.0202 -1.14433,0.59086 -1.16491,0.62211 -0.52917,0.80374 0.3638,0.10393 1.53927,0.32539 2.61216,0.49212 1.47512,0.22925 2.58685,0.64066 4.56,1.68749 1.43511,0.76139 2.61112,1.51472 2.61336,1.67406 0.005,0.32172 -0.84491,1.16549 -1.1733,1.16549 -0.11531,0 -1.28129,-0.61848 -2.59106,-1.37439 -1.49467,-0.86262 -2.98184,-1.49813 -3.9939,-1.70669 -0.88688,-0.18276 -1.63926,-0.30553 -1.67198,-0.27282 -0.14358,0.14358 3.17629,5.669905 3.79252,6.313125 0.74617,0.77883 0.69397,1.33604 -0.16841,1.79758 -0.46915,0.25108 -0.66108,0.17015 -1.32784,-0.55986 -0.42869,-0.46934 -1.5252,-2.27215 -2.43671,-4.006235 l -1.65728,-3.15289 -0.23272,0.88578 c -0.37984,1.44572 -0.0308,4.033275 0.90199,6.686895 0.73634,2.09475 0.81979,2.55515 0.52703,2.9079 -0.95754,1.15377 -1.79783,0.007 -2.67474,-3.6506 -0.56756,-2.367235 -0.65574,-4.307755 -0.25999,-5.721625 l 0.25871,-0.9243 -0.52026,0.66146 c -1.16204,1.47743 -1.69778,3.42814 -1.70762,6.217705 -0.008,2.23422 0.0839,2.83106 0.59006,3.83646 l 0.5994,1.19062 -0.5733,0.47172 c -0.71838,0.59108 -1.02688,0.49004 -1.623669,-0.53181 -1.79774,-3.07814 -0.70854,-9.174845 2.272699,-12.721305 l 0.95809,-1.13973 -0.91108,-0.79994 c -0.50109,-0.43997 -1.35537,-1.41537 -1.8984,-2.16756 -1.986219,-2.75127 -16.778789,-20.33261 -19.071189,-22.66657 -0.34379,-0.35003 -0.34873,-0.31879 -0.0419,0.26458 0.19136,0.3638 2.2099,4.99102 4.48565,10.28271 l 4.13773,9.62126 2.0937,0.0416 c 2.51229,0.0499 4.43536,0.82861 6.30723,2.55403 1.29871,1.19712 1.44448,1.58305 0.79995,2.11796 -0.34942,0.29 -0.61501,0.13944 -1.78593,-1.01245 -1.41421,-1.39124 -3.27435,-2.42236 -4.38841,-2.4326 -0.58555,-0.005 -0.56021,0.051 0.34684,0.77183 1.09116,0.86715 2.38448,2.40745 2.97307,3.54084 0.30163,0.5808 0.31809,0.83053 0.0741,1.12448 -0.51925,0.62566 -1.00403,0.43218 -1.5392,-0.61432 -0.58065,-1.13545 -2.5012,-3.3923 -3.20927,-3.77125 -0.41357,-0.22133 -0.36201,0.11068 0.38846,2.50121 0.86346,2.75046 0.855,3.32056 -0.0493,3.32056 -0.41295,0 -0.70945,-0.71505 -1.46937,-3.54359 l -0.56107,-2.08839 -0.45589,1.29464 c -0.56203,1.59602 -0.59729,2.93832 -0.10003,3.80818 0.50464,0.88278 0.48888,1.23099 -0.0654,1.44368 -0.31513,0.12092 -0.65197,-0.0432 -1.05834,-0.51562 -0.77207,-0.89759 -0.80353,-3.02228 -0.0732,-4.94435 0.28759,-0.75687 0.47821,-1.42081 0.4236,-1.47543 -0.0546,-0.0546 -0.40664,0.30366 -0.78228,0.79615 -1.05243,1.37981 -1.53097,3.01455 -1.4382,4.91307 0.0632,1.29321 -0.0109,1.72453 -0.3264,1.90112 -0.83637,0.46806 -1.17939,-0.14855 -1.14737,-2.06251 0.0402,-2.40227 1.04764,-4.7062 2.69012,-6.15196 l 1.17917,-1.03795 -3.77169,-9.59612 c -2.07443,-5.27787 -3.93669,-9.89378 -4.13835,-10.25758 -0.32863,-0.59286 -0.35222,-0.42822 -0.22741,1.58749 0.4182,6.75419 0.69957,15.15702 0.70802,21.14431 0.005,3.72308 0.11828,7.20348 0.25118,7.73422 0.25476,1.017375 0.62386,1.283835 1.77889,1.284175 1.0451,3.1e-4 3.73896,1.37647 4.87111,2.48841 1.0101,0.99207 4.11007,4.98688 4.3451,5.59934 0.15632,0.40738 -0.78368,0.96263 -1.29652,0.76583 -0.20088,-0.0771 -0.93461,-1.02458 -1.63051,-2.10555 -2.39429,-3.71915 -4.06773,-5.1224 -6.64155,-5.56926 l -1.05834,-0.18375 1.0847,1.15604 c 0.59658,0.63581 1.38965,1.57275 1.76238,2.08207 0.8268,1.12981 2.67029,5.72023 2.44415,6.08612 -0.0897,0.14513 -0.45526,0.26388 -0.81236,0.26388 -0.69138,0 -0.86679,-0.29713 -2.34291,-3.96875 -0.38028,-0.94589 -1.08111,-2.18111 -1.5574,-2.74494 l -0.86597,-1.02515 -0.49347,2.61265 c -0.27141,1.43696 -0.5246,3.20796 -0.56264,3.93556 -0.038,0.72761 -0.0787,1.41222 -0.0904,1.52136 -0.0117,0.10914 -0.37617,0.19844 -0.80996,0.19844 -1.19007,0 -1.26232,-0.83698 -0.42935,-4.97384 0.39361,-1.95484 0.65033,-3.61958 0.57048,-3.69943 -0.25389,-0.25389 -2.24397,2.03846 -2.89026,3.32927 -0.34228,0.68362 -0.83314,1.8978 -1.0908,2.69816 -0.55174,1.71387 -0.82896,2.11667 -1.45678,2.11667 -0.98169,0 -1.04571,-0.59319 -0.2772,-2.56844 1.00353,-2.57928 1.98435,-4.18961 3.37504,-5.5412 l 1.16705,-1.13425 -0.87567,0.30481 c -3.18068,1.10715 -5.62213,3.47408 -6.563212,6.36286 -0.467663,1.43556 -1.022191,1.8331 -1.733512,1.24275 -0.563589,-0.46773 -0.477814,-1.04044 0.427032,-2.85119 1.170382,-2.34214 3.818572,-4.65036 6.427452,-5.60229 0.54815,-0.20001 0.68487,-0.36583 0.49667,-0.60233 -0.14283,-0.17949 -0.31652,-1.159775 -0.38598,-2.178425 -0.12673,-1.85844 -0.66134,-3.2475 -1.78204,-4.63021 l -0.53612,-0.66146 0.19639,0.92605 c 0.10801,0.50932 0.18439,2.04574 0.16973,3.41426 -0.0219,2.04225 -0.10949,2.548775 -0.48874,2.826095 -0.25414,0.18583 -0.63232,0.27254 -0.8404,0.1927 -0.30718,-0.11788 -0.34545,-0.5805 -0.20355,-2.460235 0.19533,-2.58747 -0.0536,-5.0963 -0.44465,-4.48053 -0.13111,0.20648 -0.676679,1.47674 -1.212371,2.82281 -0.828955,2.08297 -1.063507,2.4474 -1.575172,2.4474 -0.330653,0 -0.675339,-0.11999 -0.76597,-0.26663 -0.09063,-0.14664 0.369348,-1.45633 1.022176,-2.91042 0.652827,-1.45408 1.097553,-2.64379 0.98828,-2.64379 -0.401787,0 -2.718413,1.67901 -3.081766,2.23356 -0.206216,0.31473 -0.449563,0.94535 -0.540769,1.40138 -0.293722,1.46861 -1.529965,1.30426 -1.48726,-0.19772 0.03701,-1.30158 1.120273,-2.66612 2.991253,-3.76795 1.525013,-0.89808 1.610096,-0.99194 0.897079,-0.9896 -1.288521,0.004 -3.368338,1.14703 -4.568124,2.51006 -0.612919,0.69631 -1.114398,1.36832 -1.114398,1.49336 0,0.36089 -0.963371,0.26368 -1.290264,-0.1302 -0.227874,-0.27457 -0.116805,-0.6059 0.478681,-1.42795 1.61839,-2.23412 4.141591,-3.60063 6.689577,-3.62293 l 1.776953,-0.0155 3.612665,-10.92635 c 1.98697,-6.00949 3.55152,-10.9875 3.47679,-11.06223 -0.21907,-0.21907 -3.77004,3.49317 -6.34367,6.63178 -8.353504,10.18732 -14.985951,24.10241 -19.796112,41.532875 -2.722551,9.86565 -4.377094,21.80259 -5.540084,39.96976 -0.158366,2.47385 -0.469726,6.34338 -0.69191,8.59895 -0.222185,2.25558 -0.438998,5.90291 -0.481807,8.10519 -0.08939,4.59859 -0.193996,4.9752 -1.204452,4.33642 z M 48.282465,91.215535 c 0,-5.1171 -0.0368,-12.51851 -0.0819,-16.44757 l -0.0819,-7.14375 -0.86369,3.04271 c -0.47503,1.67349 -2.03873,6.96412 -3.47489,11.75695 -2.0664,6.89614 -2.53273,8.7404 -2.23514,8.8396 0.20683,0.0689 0.98891,0.70496 1.73795,1.41338 1.72184,1.62843 2.78087,3.88508 2.95313,6.29268 l 0.12419,1.735645 0.96108,-0.0929 0.96108,-0.0929 z m 0.71261,-27.91231 c 0.33567,-0.55754 3.28921,-4.6163 6.56343,-9.019476 3.27422,-4.403172 6.65132,-8.955265 7.50467,-10.115761 l 1.55153,-2.109993 -0.5105,-0.578349 c -1.64755,-1.86651 -2.30765,-4.182181 -2.1347,-7.488707 l 0.12784,-2.443995 -0.68973,-0.164034 c -0.37935,-0.09022 -0.88417,-0.221514 -1.12181,-0.291768 -0.32688,-0.09664 -0.47747,0.115765 -0.61858,0.87246 -0.10257,0.550107 -0.54354,1.833632 -0.97992,2.852278 -1.48132,3.457843 -10.53713,28.735565 -10.53713,29.412565 0,0.3006 0.3137,-0.0429 0.8449,-0.92522 z m 42.478768,97.556535 -6.81117,-8.76133 v 6.91774 c 0,7.74577 0.14031,8.55216 1.58287,9.09666 0.43911,0.16574 0.79838,0.45384 0.79838,0.64022 0,0.25579 -0.74595,0.33887 -3.04271,0.33887 -2.31912,0 -3.04271,-0.0817 -3.04271,-0.34372 0,-0.18905 0.42767,-0.49837 0.95038,-0.68739 1.61162,-0.58277 1.69546,-1.07228 1.69546,-9.89959 0,-7.06856 -0.042,-7.81019 -0.46302,-8.18646 -0.25467,-0.22757 -0.75947,-0.45438 -1.12178,-0.50403 -0.36971,-0.0507 -0.69748,-0.29343 -0.74701,-0.55329 -0.0806,-0.42291 0.22884,-0.46302 3.57239,-0.46302 h 3.66064 l 3.74531,4.82865 c 2.05992,2.65575 4.2981,5.54302 4.97373,6.41614 l 1.22843,1.5875 -0.0822,-5.20487 c -0.0799,-5.05978 -0.0997,-5.22349 -0.71035,-5.87288 -0.34551,-0.36741 -0.88007,-0.70413 -1.18792,-0.74826 -0.30785,-0.0441 -0.59945,-0.2886 -0.64798,-0.54326 -0.0799,-0.41938 0.20033,-0.46302 2.97386,-0.46302 2.591097,0 3.062107,0.0632 3.062107,0.41064 0,0.22585 -0.32988,0.52563 -0.73306,0.66618 -1.495197,0.52123 -1.508957,0.61406 -1.594657,10.76328 l -0.0788,9.32657 h -0.58455 c -0.45412,0 -2.10435,-1.95495 -7.39572,-8.76133 z m -51.687961,-1.68971 -3.408522,-9.92188 h -0.860469 c -0.588472,0 -0.860468,-0.12545 -0.860468,-0.39687 0,-0.33848 0.720254,-0.39688 4.894792,-0.39688 4.17454,0 4.89479,0.0584 4.89479,0.39688 0,0.29484 -0.31066,0.39687 -1.20845,0.39687 -1.03085,0 -1.18673,0.068 -1.06059,0.46302 0.0813,0.25466 1.14687,3.43958 2.36788,7.07761 1.9097,5.68999 2.25537,6.52212 2.47294,5.95312 0.13911,-0.3638 0.835,-2.34738 1.54642,-4.40796 l 1.29349,-3.74649 -0.57403,-1.95113 c -0.99018,-3.3656 -1.00385,-3.38817 -2.05298,-3.38817 -0.65259,0 -0.9326,-0.11916 -0.9326,-0.39687 0,-0.33886 0.73496,-0.39688 5.02709,-0.39688 4.29213,0 5.02708,0.058 5.02708,0.39688 0,0.29398 -0.30868,0.39687 -1.19062,0.39687 -0.65485,0 -1.19063,0.0893 -1.19063,0.19834 0,0.34125 4.54859,13.86219 4.63406,13.77499 0.32089,-0.32739 3.83261,-11.30338 3.83261,-11.97895 0,-1.05392 -0.63244,-1.66083 -1.84992,-1.77526 -0.62621,-0.0589 -0.95213,-0.23601 -1.01159,-0.54985 -0.08,-0.42254 0.22628,-0.46302 3.50357,-0.46302 3.24846,0 3.59127,0.0444 3.59127,0.46458 0,0.26131 -0.34587,0.61768 -0.7905,0.81449 -0.43477,0.19245 -1.0266,0.68148 -1.31517,1.08674 -0.28857,0.40526 -1.88828,4.47382 -3.5549,9.04124 -1.66663,4.56743 -3.11379,8.51847 -3.21592,8.78011 -0.15133,0.38768 -0.43655,0.46111 -1.54158,0.39687 l -1.35589,-0.0788 -2.14635,-6.20229 c -1.72359,-4.98063 -2.1968,-6.1011 -2.40248,-5.68854 -0.14086,0.28256 -1.19907,3.10273 -2.35156,6.26704 l -2.09544,5.7533 -1.35341,0.001 -1.3534,0.001 z m 28.472623,9.525 c 0,-0.29987 0.323378,-0.39688 1.322918,-0.39688 h 1.32292 v -9.525 -9.525 h -1.32292 c -0.99954,0 -1.322918,-0.097 -1.322918,-0.39687 0,-0.33921 0.749648,-0.39688 5.159378,-0.39688 4.40972,0 5.15937,0.0577 5.15937,0.39688 0,0.29986 -0.32338,0.39687 -1.32291,0.39687 h -1.32292 v 9.525 9.525 h 1.32292 c 0.99953,0 1.32291,0.097 1.32291,0.39688 0,0.33921 -0.74965,0.39687 -5.15937,0.39687 -4.40973,0 -5.159378,-0.0577 -5.159378,-0.39687 z m 36.247915,0.0163 c 0,-0.31952 0.30055,-0.41314 1.32626,-0.41314 h 1.32626 l -0.0695,-9.45885 -0.0695,-9.45886 -1.25677,-0.0806 c -0.9079,-0.0583 -1.25677,-0.19137 -1.25677,-0.47953 0,-0.34712 0.86715,-0.38816 6.68073,-0.31623 l 6.68073,0.0827 1.64949,0.76188 c 3.35817,1.55108 5.28603,4.54712 5.55026,8.62551 0.31844,4.91523 -1.37171,8.06807 -5.47996,10.22242 l -1.45521,0.76311 -6.81302,0.0824 c -6.03399,0.073 -6.81302,0.0352 -6.81302,-0.33073 z m 11.99325,-0.77404 c 1.1326,-0.47323 2.20217,-1.77206 2.59962,-3.15686 0.20027,-0.69778 0.32201,-3.0849 0.3266,-6.40411 0.006,-4.62153 -0.054,-5.40895 -0.47653,-6.21771 -1.06534,-2.03902 -1.92095,-2.544 -4.74385,-2.7998 l -2.02617,-0.18361 v 9.5615 9.56149 h 1.72829 c 0.95056,0 2.11697,-0.1624 2.59204,-0.3609 z m 5.47156,-120.767658 c 0.002,-0.192475 2.57252,-1.879331 3.70186,-2.429686 1.98134,-0.965563 6.20857,-3.677855 7.0079,-4.496444 l 0.92308,-0.945325 -0.52304,-1.376544 c -1.18354,-3.114816 -0.95562,-5.236539 1.07988,-10.052623 1.24105,-2.936407 1.31978,-3.052993 1.9089,-2.826925 0.92128,0.353526 0.80084,1.19445 -0.58089,4.055906 -1.50625,3.11932 -1.9537,5.081087 -1.59584,6.996619 0.26105,1.397312 0.63077,2.221443 0.83629,1.864121 0.0735,-0.127828 0.34445,-0.887258 0.60205,-1.687623 0.68985,-2.143322 1.35559,-3.352878 3.01181,-5.472026 1.56598,-2.003677 2.07247,-2.274724 2.61809,-1.401047 0.41528,0.664965 0.23809,1.021281 -1.52895,3.074563 -1.23113,1.430559 -2.37791,3.402339 -2.76307,4.750839 -0.15155,0.530593 -0.043,0.515147 2.42621,-0.345115 1.42168,-0.495312 3.10588,-1.191751 3.74267,-1.547641 0.6368,-0.35589 1.31722,-0.647073 1.51205,-0.647073 0.35474,0 0.90202,0.785327 0.90202,1.29437 0,0.499 -2.22141,1.547958 -5.42198,2.560277 l -3.17302,1.003606 1.05636,0.474352 c 1.3411,0.602218 4.41167,0.637821 7.05489,0.0818 1.8011,-0.378873 1.95475,-0.375444 2.26626,0.05057 0.69719,0.953472 0.41706,1.358222 -1.18719,1.715318 -2.22164,0.494522 -6.54109,0.424614 -7.99,-0.129313 l -1.17697,-0.449966 0.64241,0.683813 c 0.35332,0.376097 1.51167,1.113425 2.5741,1.638506 1.5853,0.783502 2.30356,0.976221 4.00555,1.074747 1.27625,0.07388 2.46033,-0.0075 3.07871,-0.211573 0.89552,-0.295549 1.04322,-0.279136 1.35765,0.150878 0.54473,0.744956 0.42705,1.12314 -0.49841,1.601711 -1.2177,0.629697 -3.99793,0.557556 -6.15316,-0.159661 -2.14229,-0.712909 -4.50923,-2.266027 -6.02831,-3.955608 l -1.15065,-1.279801 -1.04426,0.784137 c -0.57435,0.431276 -2.0563,1.269564 -3.29323,1.862861 -5.76408,2.76477 -8.20189,3.863303 -8.19977,3.695 z M 96.304343,30.061942 c 0,-0.118807 1.3713,-1.628174 3.04734,-3.354149 3.292707,-3.390824 4.165797,-4.709433 3.619227,-5.466023 -1.78217,-2.466929 -2.06971,-3.823813 -1.62777,-7.681374 0.17779,-1.551858 0.40742,-2.91561 0.51029,-3.030559 0.10287,-0.11495 0.44924,0.0041 0.76972,0.264583 0.5759,0.468064 0.57794,0.496137 0.17465,2.409109 -0.54711,2.595181 -0.51266,4.68768 0.0994,6.035478 0.77081,1.697427 0.99065,1.594207 1.15213,-0.540948 0.10656,-1.408961 0.3997,-2.52245 1.06023,-4.027265 0.91411,-2.082517 1.34661,-2.462826 1.86543,-1.640325 0.21185,0.335859 0.0759,0.876281 -0.57608,2.290882 -0.95246,2.066403 -1.45503,4.796561 -0.80975,4.398919 1.2987,-0.800302 3.64515,-2.555615 4.17931,-3.126423 0.49953,-0.533807 0.73498,-0.619969 1.12448,-0.411513 1.20625,0.645566 0.0949,1.90854 -3.74068,4.251084 l -1.45521,0.888752 1.27492,0.08138 c 1.43115,0.09136 3.45056,-0.478722 5.16125,-1.457022 1.08741,-0.62186 1.16959,-0.631806 1.64741,-0.199388 0.63623,0.575779 0.503,0.776853 -1.02913,1.553242 -1.42161,0.720385 -3.03289,1.197056 -4.93778,1.460761 l -1.32292,0.183139 1.43709,0.445713 c 2.15498,0.668369 4.41317,0.586942 5.99255,-0.216081 1.46126,-0.742965 2.04056,-0.683208 1.91548,0.197591 -0.0568,0.399894 -0.4738,0.792706 -1.26524,1.191808 -2.20661,1.112728 -6.63261,0.558784 -9.14209,-1.144195 l -1.00794,-0.684011 -0.63302,0.808843 c -0.34816,0.444863 -1.90643,1.904337 -3.46284,3.243276 -1.556397,1.338938 -3.097707,2.672099 -3.425127,2.962579 -0.32742,0.29048 -0.59531,0.43094 -0.59531,0.312134 z M 135.19809,13.231584 c 0.3638,-0.299302 1.67349,-1.141759 2.91041,-1.872125 1.23693,-0.730367 2.5654,-1.6270297 2.95216,-1.9925827 0.66994,-0.633217 0.68558,-0.706791 0.33072,-1.556073 -0.61625,-1.474893 -0.44525,-3.447366 0.49981,-5.765175 0.85722,-2.10239702 1.15419,-2.41601002 1.60743,-1.69747902 0.17622,0.279369 0.007,0.91631002 -0.57499,2.15915002 -0.45373,0.969586 -0.90081,2.167226 -0.99352,2.661422 -0.17596,0.937938 0.0571,2.527406 0.37065,2.527406 0.0998,0 0.38326,-0.565547 0.62992,-1.256771 0.24666,-0.691224 0.95032,-1.938639 1.56369,-2.772033 0.8684,-1.179909 1.19279,-1.450883 1.46572,-1.224374 0.54143,0.449347 0.4319,0.798741 -0.6674,2.129051 -1.0138,1.226834 -1.81526,2.760409 -1.57053,3.005144 0.0708,0.07075 1.00951,-0.24018 2.08614,-0.690952 2.88047,-1.206023 2.88354,-1.206514 2.88354,-0.460553 0,0.734849 -0.77438,1.18689 -3.27642,1.91261 -1.0002,0.290108 -1.46535,0.542775 -1.30128,0.706844 0.32848,0.328486 2.44384,0.398419 4.34528,0.143653 1.27032,-0.170206 1.51254,-0.133687 1.65987,0.250249 0.23363,0.6088347 0.20358,0.6247597 -1.80775,0.9580497 -1.26741,0.210015 -2.11389,0.212263 -3.0066,0.008 -0.68339,-0.156382 -1.28182,-0.245044 -1.32984,-0.197025 -0.048,0.04802 0.48759,0.425226 1.19024,0.838237 1.12407,0.660722 1.53942,0.75093 3.45752,0.75093 1.67639,0 2.21453,0.09007 2.32951,0.389895 0.48684,1.269517 -2.98226,1.38244 -5.3657,0.17466 -0.75628,-0.383239 -1.79455,-1.116284 -2.30725,-1.628989 l -0.93219,-0.9321917 -1.9065,1.0803427 c -2.69561,1.527506 -6.09443,3.051468 -5.24264,2.350698 z"
     id="path1" /></svg>
